<svg width="130" height="124" viewBox="0 0 130 124" fill="none" xmlns="http://www.w3.org/2000/svg">
<g clip-path="url(#clip0_336_2746)">
<path opacity="0.32" d="M92.0632 110H32.9368C31.8804 110 31 109.318 31 108.5C31 107.682 31.8804 107 32.9368 107H92.0632C93.1196 107 94 107.682 94 108.5C94 109.318 93.1196 110 92.0632 110Z" fill="#1C1C1C"/>
<path d="M137.878 124H2.12238C0.964719 124 0 123.318 0 122.5C0 121.682 0.964719 121 2.12238 121H137.878C139.035 121 140 121.682 140 122.5C140 123.345 139.035 124 137.878 124Z" fill="#E3E3E3"/>
<path d="M125 72H1V5.53847C1 2.46938 3.4659 0 6.53068 0H119.293C122.428 0 125 2.57521 125 5.71485V72Z" fill="#383939"/>
<path d="M3 66.8125V5.1875C3 3.41667 4.41176 2 6.17647 2H119.824C121.588 2 123 3.41667 123 5.1875V66.8125C123 68.5833 121.588 70 119.824 70H6.17647C4.44706 70 3 68.5479 3 66.8125Z" fill="#3A3A3A"/>
<path d="M125 72H1V5.53847C1 2.46938 3.4659 0 6.53068 0H119.293C122.428 0 125 2.57521 125 5.71485V72Z" stroke="#383939" stroke-width="1.098" stroke-miterlimit="10" stroke-linecap="round" stroke-linejoin="round"/>
<path d="M118 65V7H8V65H118Z" fill="white"/>
<rect x="55.0508" y="29.9153" width="12.8469" height="12.8469" rx="0.842748" fill="#60BBE0"/>
<path d="M65.2311 27.601C64.9296 27.2995 65.1432 26.7839 65.5696 26.7839H70.56C70.8244 26.7839 71.0387 26.9982 71.0387 27.2626V32.3426C71.0387 32.773 70.5148 32.9847 70.2158 32.6751L67.6737 30.0436L65.2311 27.601Z" fill="#1D2D5A"/>
<rect x="53.1367" y="36.3615" width="8.32562" height="7.51517" rx="0.971478" fill="white"/>
<path d="M119.258 89H6.5659C3.50113 89 1 86.4854 1 83.4042V72H125V83.2271C125 86.3792 122.428 89 119.258 89Z" fill="#D4E8DC"/>
<path d="M6.73928 86C5.22916 86 4 84.7602 4 83.2371V73H122V83.0599C122 84.6894 120.701 86 119.085 86H6.73928Z" fill="#EBF2EE"/>
<path d="M119.258 89H6.5659C3.50113 89 1 86.4854 1 83.4042V72H125V83.2271C125 86.3792 122.428 89 119.258 89Z" stroke="#383939" stroke-width="1.098" stroke-miterlimit="10" stroke-linecap="round" stroke-linejoin="round"/>
<path d="M81 102H43L48.6283 89H75.3717L81 102Z" fill="#CAD8D0"/>
<path d="M78 95L75.5508 89H49.4492L47 95H78Z" fill="#A1ADA6"/>
<path d="M81 102H43L48.6283 89H75.3717L81 102Z" stroke="#383939" stroke-width="1.098" stroke-miterlimit="10" stroke-linecap="round" stroke-linejoin="round"/>
<path d="M88 107H36L36.5342 105.344C37.1753 103.375 39.2767 102 41.6986 102H82.3014C84.7233 102 86.8603 103.375 87.4658 105.344L88 107Z" fill="#DAEDE2"/>
<path d="M88 107H36L36.5342 105.344C37.1753 103.375 39.2767 102 41.6986 102H82.3014C84.7233 102 86.8603 103.375 87.4658 105.344L88 107Z" stroke="#383939" stroke-width="1.098" stroke-miterlimit="10" stroke-linecap="round" stroke-linejoin="round"/>
<path d="M16.3838 122H106.617C107.933 122 109 120.881 109 119.5C109 118.119 107.933 117 106.617 117H16.3838C15.0679 117 14.0009 118.119 14.0009 119.5C13.9653 120.881 15.0323 122 16.3838 122Z" fill="#DAEDE2"/>
<path d="M16.3838 122H106.617C107.933 122 109 120.881 109 119.5C109 118.119 107.933 117 106.617 117H16.3838C15.0679 117 14.0009 118.119 14.0009 119.5C13.9653 120.881 15.0323 122 16.3838 122Z" stroke="#383939" stroke-width="1.098" stroke-miterlimit="10" stroke-linecap="round" stroke-linejoin="round"/>
<path d="M44 117H87V115.8C87 114.81 86.0484 114 84.8852 114H46.1148C44.9516 114 44 114.81 44 115.8V117Z" fill="#383939"/>
<path d="M35 117H43V115.8C43 114.81 41.9811 114 40.7358 114H37.2642C36.0189 114 35 114.81 35 115.8V117Z" fill="#383939"/>
<path d="M26 117H34V115.8C34 114.81 32.9811 114 31.7359 114H28.2641C27.0189 114 26 114.81 26 115.8V117Z" fill="#383939"/>
<path d="M97 117H105V115.8C105 114.81 103.981 114 102.736 114H99.2641C98.0189 114 97 114.81 97 115.8V117Z" fill="#383939"/>
<path d="M88 117H96V115.8C96 114.81 94.9811 114 93.7359 114H90.2641C89.0189 114 88 114.81 88 115.8V117Z" fill="#383939"/>
<path d="M18 117H25V115.8C25 114.81 24.1085 114 23.0189 114H19.9811C18.8915 114 18 114.81 18 115.8V117Z" fill="#383939"/>
<path d="M130 122C129.965 119.5 127.091 117 122 117C116.944 117 114.035 119.5 114 122H130Z" fill="#DAEDE2"/>
<path d="M130 122C129.965 119.5 127.091 117 122 117C116.944 117 114.035 119.5 114 122H130Z" stroke="#383939" stroke-width="1.098" stroke-miterlimit="10" stroke-linecap="round" stroke-linejoin="round"/>
<path opacity="0.16" d="M19 65H32.7997L63 7H49.2003L19 65Z" fill="#C2D3C9"/>
<path opacity="0.16" d="M44.1124 65L74 7H68.8876L39 65H44.1124Z" fill="#C2D3C9"/>
</g>
<defs>
<clipPath id="clip0_336_2746">
<rect width="130" height="124" fill="white"/>
</clipPath>
</defs>
</svg>
