<svg width="190" height="193" viewBox="0 0 190 193" fill="none" xmlns="http://www.w3.org/2000/svg">
<g clip-path="url(#clip0_199_5878)">
<g opacity="0.55">
<path opacity="0.55" d="M160.819 69.9135V78.0093H144.602" stroke="#474747" stroke-width="1.56" stroke-miterlimit="10" stroke-linecap="round" stroke-linejoin="round"/>
<path opacity="0.55" d="M177.01 78.0093H160.818V69.9135" stroke="#474747" stroke-width="1.56" stroke-miterlimit="10" stroke-linecap="round" stroke-linejoin="round"/>
<path opacity="0.55" d="M168.913 78.0095H152.695V86.1053H168.913V78.0095Z" stroke="#474747" stroke-width="1.56" stroke-miterlimit="10" stroke-linecap="round" stroke-linejoin="round"/>
<path opacity="0.55" d="M165.403 94.2274H160.818V86.1316H177.01" stroke="#474747" stroke-width="1.56" stroke-miterlimit="10" stroke-linecap="round" stroke-linejoin="round"/>
<path opacity="0.55" d="M144.602 86.1316H160.819V94.2274H147.667" stroke="#474747" stroke-width="1.56" stroke-miterlimit="10" stroke-linecap="round" stroke-linejoin="round"/>
<path opacity="0.55" d="M139.072 78.0095H152.696V86.1315H144.6" stroke="#474747" stroke-width="1.56" stroke-miterlimit="10" stroke-linecap="round" stroke-linejoin="round"/>
<path opacity="0.55" d="M180.601 86.1315H168.916V78.0095H174.523" stroke="#474747" stroke-width="1.56" stroke-miterlimit="10" stroke-linecap="round" stroke-linejoin="round"/>
</g>
<g opacity="0.55">
<path opacity="0.55" d="M139.492 49.163L125.449 35.1198C123.405 33.0762 123.405 29.7488 125.449 27.7052L139.492 13.662C141.536 11.6184 144.863 11.6184 146.907 13.662L160.95 27.7052C162.993 29.7488 162.993 33.0762 160.95 35.1198L146.907 49.163C144.863 51.2066 141.536 51.2066 139.492 49.163Z" stroke="#333333" stroke-opacity="0.45" stroke-width="2.6" stroke-miterlimit="10" stroke-linecap="round" stroke-linejoin="round"/>
<path opacity="0.55" d="M143.186 17.3301V14.7625" stroke="#333333" stroke-opacity="0.45" stroke-width="1.56" stroke-miterlimit="10" stroke-linecap="round" stroke-linejoin="round"/>
<path opacity="0.55" d="M143.186 48.0625V45.4949" stroke="#333333" stroke-opacity="0.45" stroke-width="1.56" stroke-miterlimit="10" stroke-linecap="round" stroke-linejoin="round"/>
<path opacity="0.55" d="M157.281 31.4258H159.849" stroke="#333333" stroke-opacity="0.45" stroke-width="1.56" stroke-miterlimit="10" stroke-linecap="round" stroke-linejoin="round"/>
<path opacity="0.55" d="M126.549 31.4258H129.116" stroke="#333333" stroke-opacity="0.45" stroke-width="1.56" stroke-miterlimit="10" stroke-linecap="round" stroke-linejoin="round"/>
<path opacity="0.55" d="M143.185 31.4254L139.098 27.6002" stroke="#333333" stroke-opacity="0.45" stroke-width="2.08" stroke-miterlimit="10" stroke-linecap="round" stroke-linejoin="round"/>
<path opacity="0.55" d="M149.316 23.3297L143.186 31.8709" stroke="#333333" stroke-opacity="0.45" stroke-width="1.3" stroke-miterlimit="10" stroke-linecap="round" stroke-linejoin="round"/>
<path opacity="0.55" d="M143.526 33.4167C144.626 33.4167 145.518 32.5254 145.518 31.4255C145.518 30.3259 144.626 29.4343 143.526 29.4343C142.427 29.4343 141.535 30.3259 141.535 31.4255C141.535 32.5254 142.427 33.4167 143.526 33.4167Z" fill="#333333"/>
</g>
<g opacity="0.55">
<path opacity="0.55" d="M54.6291 30.1942H27.8789V56.8134H54.6291V30.1942Z" stroke="#333333" stroke-opacity="0.45" stroke-width="2.6" stroke-miterlimit="10" stroke-linecap="round" stroke-linejoin="round"/>
<path opacity="0.55" d="M79.7549 10.8586H59.5547V37.4778H79.7549V10.8586Z" stroke="#333333" stroke-opacity="0.45" stroke-width="2.6" stroke-miterlimit="10" stroke-linecap="round" stroke-linejoin="round"/>
<path opacity="0.55" d="M33.1172 44.1849L40.2698 37.0323" stroke="#333333" stroke-opacity="0.45" stroke-width="1.04" stroke-miterlimit="10" stroke-linecap="round" stroke-linejoin="round"/>
<path opacity="0.55" d="M39.5645 43.5037L46.0097 37.0323" stroke="#333333" stroke-opacity="0.45" stroke-width="1.04" stroke-miterlimit="10" stroke-linecap="round" stroke-linejoin="round"/>
<path opacity="0.55" d="M34.5352 48.534L37.1552 45.8878" stroke="#333333" stroke-opacity="0.45" stroke-width="1.04" stroke-miterlimit="10" stroke-linecap="round" stroke-linejoin="round"/>
<path opacity="0.55" d="M65.5527 23.2773L70.4521 18.3779" stroke="#333333" stroke-opacity="0.45" stroke-width="1.04" stroke-miterlimit="10" stroke-linecap="round" stroke-linejoin="round"/>
<path opacity="0.55" d="M72.8633 22.0718L74.7497 20.1854" stroke="#333333" stroke-opacity="0.45" stroke-width="1.04" stroke-miterlimit="10" stroke-linecap="round" stroke-linejoin="round"/>
<path opacity="0.55" d="M64.7695 30.1942L70.7693 24.1682" stroke="#333333" stroke-opacity="0.45" stroke-width="1.04" stroke-miterlimit="10" stroke-linecap="round" stroke-linejoin="round"/>
</g>
<path d="M163.676 157.736H168.759" stroke="#E3E3E3" stroke-width="2.6" stroke-miterlimit="10" stroke-linecap="round" stroke-linejoin="round"/>
<path d="M173.213 157.736H174.47" stroke="#E3E3E3" stroke-width="2.6" stroke-miterlimit="10" stroke-linecap="round" stroke-linejoin="round"/>
<path d="M28.1426 157.736H158.881" stroke="#E3E3E3" stroke-width="2.6" stroke-miterlimit="10" stroke-linecap="round" stroke-linejoin="round"/>
<path d="M16.2207 157.736H22.3777" stroke="#E3E3E3" stroke-width="2.6" stroke-miterlimit="10" stroke-linecap="round" stroke-linejoin="round"/>
<path d="M64.3496 61.9224C64.3496 59.8526 66.0264 58.1758 68.0962 58.1758C70.166 58.1758 71.8428 59.8526 71.8428 61.9224H64.3496Z" fill="#60BBE0"/>
<path d="M64.3496 61.9224C64.3496 59.8526 66.0264 58.1758 68.0962 58.1758C70.166 58.1758 71.8428 59.8526 71.8428 61.9224H64.3496Z" fill="#60BBE0" stroke="#1D2D5A" stroke-width="2.08" stroke-miterlimit="10" stroke-linecap="round" stroke-linejoin="round"/>
<path d="M120.184 61.9224C120.184 59.8526 121.86 58.1758 123.93 58.1758C126 58.1758 127.677 59.8526 127.677 61.9224H120.184Z" fill="#60BBE0"/>
<path d="M120.184 61.9224C120.184 59.8526 121.86 58.1758 123.93 58.1758C126 58.1758 127.677 59.8526 127.677 61.9224H120.184Z" stroke="#1D2D5A" stroke-width="2.08" stroke-miterlimit="10" stroke-linecap="round" stroke-linejoin="round"/>
<path d="M125.449 65.1451C119.973 65.1451 115.545 63.0491 112.951 59.1453L111.274 56.8921C107.816 52.2547 102.209 49.5037 96.3142 49.5037H95.6854C89.7904 49.5037 84.2098 52.2547 80.7252 56.8921L79.0484 59.1453C75.8258 64.0185 69.7212 66.0621 62.3066 64.7521L62.8568 61.6605C66.4724 62.2893 73.0486 62.6037 76.4546 57.3899L76.507 57.3113L78.21 55.0319C82.271 49.6085 88.7948 46.3859 95.6854 46.3859H96.3142C103.205 46.3859 109.729 49.6085 113.79 55.0319L115.571 57.3899C118.977 62.6037 125.553 62.3155 129.169 61.6605L129.719 64.7521C128.226 65.0141 126.811 65.1451 125.449 65.1451Z" fill="#60BBE0"/>
<path d="M125.449 65.1451C119.973 65.1451 115.545 63.0491 112.951 59.1453L111.274 56.8921C107.816 52.2547 102.209 49.5037 96.3142 49.5037H95.6854C89.7904 49.5037 84.2098 52.2547 80.7252 56.8921L79.0484 59.1453C75.8258 64.0185 69.7212 66.0621 62.3066 64.7521L62.8568 61.6605C66.4724 62.2893 73.0486 62.6037 76.4546 57.3899L76.507 57.3113L78.21 55.0319C82.271 49.6085 88.7948 46.3859 95.6854 46.3859H96.3142C103.205 46.3859 109.729 49.6085 113.79 55.0319L115.571 57.3899C118.977 62.6037 125.553 62.3155 129.169 61.6605L129.719 64.7521C128.226 65.0141 126.811 65.1451 125.449 65.1451Z" stroke="#1D2D5A" stroke-width="2.6" stroke-miterlimit="10" stroke-linecap="round" stroke-linejoin="round"/>
<path d="M44.125 106.855H39.1732L33.5664 143.797C33.5664 143.797 37.5226 141.937 38.8588 141.937C43.1032 141.937 44.1512 143.797 44.1512 143.797V106.855H44.125Z" fill="#60BBE0"/>
<path d="M44.125 106.855H39.1732L33.5664 143.797C33.5664 143.797 37.5226 141.937 38.8588 141.937C43.1032 141.937 44.1512 143.797 44.1512 143.797V106.855H44.125Z" stroke="#43293A" stroke-width="2.6" stroke-miterlimit="10" stroke-linecap="round" stroke-linejoin="round"/>
<path d="M44.125 106.855H39.1732L33.5664 143.797C33.5664 143.797 37.5226 141.937 38.8588 141.937C43.1032 141.937 44.1512 143.797 44.1512 143.797V106.855H44.125Z" stroke="#1D2D5A" stroke-width="2.6" stroke-miterlimit="10" stroke-linecap="round" stroke-linejoin="round"/>
<path d="M43.4168 106.855H39.1986L33.5918 143.797C33.5918 143.797 36.4214 142.487 38.0982 142.068L43.4168 106.855Z" fill="#324782"/>
<path d="M43.4168 106.855H39.1986L33.5918 143.797C33.5918 143.797 36.4214 142.487 38.0982 142.068L43.4168 106.855Z" stroke="#1D2D5A" stroke-width="2.6" stroke-miterlimit="10" stroke-linecap="round" stroke-linejoin="round"/>
<path d="M147.878 106.855H152.83L158.436 143.797C158.436 143.797 154.48 141.937 153.144 141.937C148.9 141.937 147.852 143.797 147.852 143.797V106.855H147.878Z" fill="#60BBE0"/>
<path d="M147.878 106.855H152.83L158.436 143.797C158.436 143.797 154.48 141.937 153.144 141.937C148.9 141.937 147.852 143.797 147.852 143.797V106.855H147.878Z" stroke="#43293A" stroke-width="2.6" stroke-miterlimit="10" stroke-linecap="round" stroke-linejoin="round"/>
<path d="M147.878 106.855H152.83L158.436 143.797C158.436 143.797 154.48 141.937 153.144 141.937C148.9 141.937 147.852 143.797 147.852 143.797V106.855H147.878Z" stroke="#1D2D5A" stroke-width="2.6" stroke-miterlimit="10" stroke-linecap="round" stroke-linejoin="round"/>
<path d="M148.584 106.855H152.802L158.409 143.797C158.409 143.797 155.579 142.487 153.903 142.068L148.584 106.855Z" fill="#1D2D5A"/>
<path d="M148.584 106.855H152.802L158.409 143.797C158.409 143.797 155.579 142.487 153.903 142.068L148.584 106.855Z" stroke="#1D2D5A" stroke-width="2.6" stroke-miterlimit="10" stroke-linecap="round" stroke-linejoin="round"/>
<path d="M142.059 157.579H49.8349C46.3503 157.579 43.5469 154.775 43.5469 151.291V85.7909H148.347V151.291C148.347 154.775 145.543 157.579 142.059 157.579Z" fill="#324782"/>
<path opacity="0.48" d="M110.671 140.47H81.3268C79.0212 140.47 77.1348 138.584 77.1348 136.278V125.615H114.863V136.278C114.863 138.61 112.976 140.47 110.671 140.47Z" fill="#2C385A" stroke="white" stroke-opacity="0.17" stroke-width="2.6" stroke-miterlimit="10"/>
<path d="M99.119 138.819C99.119 140.549 97.7304 141.937 96.0012 141.937C94.272 141.937 92.8834 140.549 92.8834 138.819H90.5254C90.5254 141.832 92.9882 144.295 96.0012 144.295C99.0142 144.295 101.477 141.832 101.477 138.819H99.119Z" fill="white"/>
<path d="M99.119 138.819C99.119 140.549 97.7304 141.937 96.0012 141.937C94.272 141.937 92.8834 140.549 92.8834 138.819H90.5254C90.5254 141.832 92.9882 144.295 96.0012 144.295C99.0142 144.295 101.477 141.832 101.477 138.819H99.119Z" stroke="#1D2D5A" stroke-width="1.04" stroke-miterlimit="10" stroke-linecap="round" stroke-linejoin="round"/>
<path opacity="0.48" d="M142.112 154.618H49.8876C46.403 154.618 43.5996 151.815 43.5996 148.33V151.422C43.5996 154.906 46.403 157.71 49.8876 157.71H142.112C145.596 157.71 148.4 154.906 148.4 151.422V148.33C148.4 151.815 145.596 154.618 142.112 154.618Z" fill="#2C385A"/>
<path d="M148.4 115.554V86.9698H43.5996V115.554C45.0144 116.235 46.534 116.733 48.1584 117.074C61.8086 119.825 76.7426 121.108 95.1612 121.108H96.838C115.257 121.108 130.191 119.825 143.841 117.074C145.465 116.733 146.985 116.235 148.4 115.554Z" fill="#2C385A"/>
<path d="M110.671 138.636H81.3268C79.0212 138.636 77.1348 136.75 77.1348 134.444V123.781H114.863V134.444C114.863 136.776 112.976 138.636 110.671 138.636Z" fill="#60BBE0"/>
<path opacity="0.45" d="M77.1348 129.597C78.5758 130.96 80.5146 131.798 82.6368 131.798H109.361C111.483 131.798 113.422 130.96 114.863 129.597V124.829H77.1348V129.597Z" fill="#60BBE0"/>
<path d="M83.3453 135.754H81.3279C80.4633 135.754 79.7559 135.047 79.7559 134.182V126.139" stroke="#43293A" stroke-width="0.78" stroke-miterlimit="10" stroke-linecap="round" stroke-linejoin="round" stroke-dasharray="1.3 1.3"/>
<path d="M112.243 131.536V134.182C112.243 135.047 111.536 135.754 110.671 135.754H86.043" stroke="#43293A" stroke-width="0.78" stroke-miterlimit="10" stroke-linecap="round" stroke-linejoin="round" stroke-dasharray="1.3 1.3"/>
<path d="M110.671 138.636H81.3268C79.0212 138.636 77.1348 136.75 77.1348 134.444V123.781H114.863V134.444C114.863 136.776 112.976 138.636 110.671 138.636Z" stroke="#1D2D5A" stroke-width="2.6" stroke-miterlimit="10" stroke-linecap="round" stroke-linejoin="round"/>
<path d="M109.364 129.178H82.6397C79.1027 129.178 76.2207 126.296 76.2207 122.759V116.366H115.783V122.785C115.783 126.322 112.901 129.178 109.364 129.178Z" fill="white"/>
<path opacity="0.84" d="M76.2207 120.558C82.1419 120.899 88.4037 121.082 95.1633 121.082H96.8401C103.574 121.082 109.861 120.899 115.783 120.558V116.366H76.2207V120.558Z" fill="#E1E1E1"/>
<path d="M109.364 129.178H82.6397C79.1027 129.178 76.2207 126.296 76.2207 122.759V116.366H115.783V122.785C115.783 126.322 112.901 129.178 109.364 129.178Z" stroke="#1D2D5A" stroke-width="2.6" stroke-miterlimit="10" stroke-linecap="round" stroke-linejoin="round"/>
<path d="M78.8398 122.471V117.545H113.162V122.471C113.162 124.567 111.459 126.27 109.363 126.27H82.6388C80.5428 126.27 78.8398 124.567 78.8398 122.471Z" stroke="#43293A" stroke-width="0.78" stroke-miterlimit="10" stroke-linecap="round" stroke-linejoin="round" stroke-dasharray="1.3 1.3"/>
<path d="M142.112 157.71H49.8876C46.403 157.71 43.5996 154.906 43.5996 151.422V85.9219H148.4V151.422C148.4 154.906 145.596 157.71 142.112 157.71Z" stroke="#1D2D5A" stroke-width="2.6" stroke-miterlimit="10" stroke-linecap="round" stroke-linejoin="round"/>
<path d="M49.889 153.518C48.7362 153.518 47.793 152.575 47.793 151.422V90.1139H144.209V151.422C144.209 152.575 143.266 153.518 142.113 153.518H49.889Z" stroke="#1D2D5A" stroke-width="1.04" stroke-miterlimit="10" stroke-linecap="round" stroke-linejoin="round" stroke-dasharray="1.82 1.82"/>
<path d="M39.8 70.8304L36.263 96.6374C35.1626 104.628 40.2978 111.781 48.6556 113.458C64.0612 116.549 79.9908 117.466 95.999 117.44C112.007 117.466 127.937 116.576 143.342 113.458C151.7 111.781 156.835 104.628 155.735 96.6374L152.198 70.8304C151.753 67.5816 148.53 64.9354 144.836 64.752C112.243 63.2062 79.7812 63.2062 47.1884 64.752C43.4942 64.9354 40.2454 67.5816 39.8 70.8304Z" fill="#60BBE0"/>
<path opacity="0.55" d="M155.735 96.6374L152.198 70.8304C151.753 67.5816 148.53 64.9354 144.836 64.752C112.243 63.2062 79.7812 63.2062 47.1884 64.752C43.4942 64.9354 40.2716 67.5816 39.8262 70.8304L36.263 96.6374C35.1626 104.628 40.2978 111.781 48.6556 113.458C64.0612 116.549 79.9908 117.466 95.999 117.44C112.007 117.466 127.937 116.576 143.342 113.458C151.674 111.781 156.809 104.628 155.735 96.6374ZM143.316 113.536C129.849 116.366 115.099 117.676 96.8374 117.676H95.1344C76.873 117.676 62.1224 116.366 48.6556 113.536C41.5554 112.043 37.1014 105.755 38.0446 98.6024L41.6078 71.433C41.896 69.206 44.2278 67.3196 46.7954 67.1886C63.1442 66.3764 79.6764 65.9572 95.9728 65.9572C112.269 65.9572 128.828 66.3764 145.15 67.1886C147.718 67.3196 150.05 69.2322 150.338 71.433L153.901 98.6024C154.897 105.755 150.416 112.043 143.316 113.536Z" fill="#48A0C3"/>
<path opacity="0.45" d="M143.344 110.943C127.939 114.034 112.009 114.951 96.0008 114.925C79.9926 114.951 64.063 114.06 48.6574 110.943C41.5048 109.502 36.7102 104.052 36.16 97.5021C35.5312 105.152 40.5878 111.833 48.6574 113.458C64.063 116.549 79.9926 117.466 96.0008 117.44C112.009 117.466 127.939 116.576 143.344 113.458C151.388 111.833 156.444 105.152 155.842 97.5021C155.291 104.052 150.497 109.502 143.344 110.943Z" fill="#53ACD0"/>
<path d="M39.8 70.8304L36.263 96.6374C35.1626 104.628 40.2978 111.781 48.6556 113.458C64.0612 116.549 79.9908 117.466 95.999 117.44C112.007 117.466 127.937 116.576 143.342 113.458C151.7 111.781 156.835 104.628 155.735 96.6374L152.198 70.8304C151.753 67.5816 148.53 64.9354 144.836 64.752C112.243 63.2062 79.7812 63.2062 47.1884 64.752C43.4942 64.9354 40.2454 67.5816 39.8 70.8304Z" stroke="#1D2D5A" stroke-width="2.6" stroke-miterlimit="10" stroke-linecap="round" stroke-linejoin="round"/>
<path d="M95.1609 113.222C77.2139 113.222 62.6991 111.99 49.4943 109.318C43.3373 108.087 39.6169 103.082 40.4291 97.1875L43.9661 71.3805C44.1233 70.2801 45.5643 69.0225 47.3721 68.9177C63.5113 68.1579 79.8863 67.7649 95.9993 67.7649C112.112 67.7649 128.461 68.1579 144.626 68.9177C146.46 68.9963 147.875 70.2801 148.032 71.3805L151.569 97.1875C152.382 103.109 148.661 108.087 142.504 109.318C129.299 111.99 114.785 113.222 96.8377 113.222H95.1609Z" stroke="#43293A" stroke-width="1.04" stroke-linecap="round" stroke-linejoin="round" stroke-dasharray="1.82 1.82"/>
<path d="M66.0012 161.483C63.4074 161.483 61.2852 159.361 61.2852 156.767V90.507H70.7172V156.767C70.7172 159.361 68.6212 161.483 66.0012 161.483Z" fill="white"/>
<path d="M70.7172 90.507H61.2852V93.913H70.7172V90.507Z" fill="#43293A"/>
<path opacity="0.78" d="M70.7172 108.821H61.2852V113.537H70.7172V108.821Z" fill="#D9D9D9"/>
<path d="M66.0012 161.483C63.4074 161.483 61.2852 159.361 61.2852 156.767V90.507H70.7172V156.767C70.7172 159.361 68.6212 161.483 66.0012 161.483Z" stroke="#43293A" stroke-width="2.6" stroke-miterlimit="10" stroke-linecap="round" stroke-linejoin="round"/>
<path d="M58.1406 105.677V120.087H61.2846V116.943V115.659V108.821H70.7166V115.659V116.943V120.087H73.8606V105.677H58.1406Z" fill="white"/>
<path d="M71.3204 105.677H60.7356C59.3208 105.677 58.168 106.829 58.168 108.244V117.519C58.168 118.934 59.3208 120.087 60.7356 120.087H61.312V116.943V113.537V108.821H70.744V113.537V116.943V120.087H71.3204C72.7352 120.087 73.888 118.934 73.888 117.519V108.244C73.8618 106.829 72.7352 105.677 71.3204 105.677Z" stroke="#43293A" stroke-width="2.08" stroke-miterlimit="10" stroke-linecap="round" stroke-linejoin="round"/>
<path d="M66.0015 102.009C66.7975 102.009 67.4425 101.364 67.4425 100.568C67.4425 99.7719 66.7975 99.1266 66.0015 99.1266C65.2056 99.1266 64.5605 99.7719 64.5605 100.568C64.5605 101.364 65.2056 102.009 66.0015 102.009Z" fill="white"/>
<path d="M66.0015 102.009C66.7975 102.009 67.4425 101.364 67.4425 100.568C67.4425 99.7719 66.7975 99.1266 66.0015 99.1266C65.2056 99.1266 64.5605 99.7719 64.5605 100.568C64.5605 101.364 65.2056 102.009 66.0015 102.009Z" stroke="#43293A" stroke-width="1.04" stroke-miterlimit="10" stroke-linecap="round" stroke-linejoin="round"/>
<path d="M66.0015 116.104C66.7975 116.104 67.4425 115.459 67.4425 114.663C67.4425 113.867 66.7975 113.222 66.0015 113.222C65.2056 113.222 64.5605 113.867 64.5605 114.663C64.5605 115.459 65.2056 116.104 66.0015 116.104Z" fill="white"/>
<path d="M66.0015 116.497C66.7975 116.497 67.4425 115.852 67.4425 115.056C67.4425 114.26 66.7975 113.615 66.0015 113.615C65.2056 113.615 64.5605 114.26 64.5605 115.056C64.5605 115.852 65.2056 116.497 66.0015 116.497Z" stroke="#43293A" stroke-width="1.04" stroke-miterlimit="10" stroke-linecap="round" stroke-linejoin="round"/>
<path d="M66.0015 135.152C66.7975 135.152 67.4425 134.507 67.4425 133.711C67.4425 132.915 66.7975 132.27 66.0015 132.27C65.2056 132.27 64.5605 132.915 64.5605 133.711C64.5605 134.507 65.2056 135.152 66.0015 135.152Z" fill="#60BBE0"/>
<path d="M66.0015 135.152C66.7975 135.152 67.4425 134.507 67.4425 133.711C67.4425 132.915 66.7975 132.27 66.0015 132.27C65.2056 132.27 64.5605 132.915 64.5605 133.711C64.5605 134.507 65.2056 135.152 66.0015 135.152Z" stroke="#43293A" stroke-width="1.04" stroke-miterlimit="10" stroke-linecap="round" stroke-linejoin="round"/>
<path d="M66.0015 144.479C66.7975 144.479 67.4425 143.834 67.4425 143.038C67.4425 142.242 66.7975 141.597 66.0015 141.597C65.2056 141.597 64.5605 142.242 64.5605 143.038C64.5605 143.834 65.2056 144.479 66.0015 144.479Z" fill="#60BBE0"/>
<path d="M66.0015 144.479C66.7975 144.479 67.4425 143.834 67.4425 143.038C67.4425 142.242 66.7975 141.597 66.0015 141.597C65.2056 141.597 64.5605 142.242 64.5605 143.038C64.5605 143.834 65.2056 144.479 66.0015 144.479Z" stroke="#43293A" stroke-width="1.04" stroke-miterlimit="10" stroke-linecap="round" stroke-linejoin="round"/>
<path d="M66.0011 116.104C65.4247 116.104 64.9531 115.633 64.9531 115.056V106.699C64.9531 106.122 65.4247 105.651 66.0011 105.651C66.5775 105.651 67.0491 106.122 67.0491 106.699V115.056C67.0491 115.659 66.6037 116.104 66.0011 116.104Z" fill="white"/>
<path d="M66.0011 116.104C65.4247 116.104 64.9531 115.633 64.9531 115.056V106.699C64.9531 106.122 65.4247 105.651 66.0011 105.651C66.5775 105.651 67.0491 106.122 67.0491 106.699V115.056C67.0491 115.659 66.6037 116.104 66.0011 116.104Z" stroke="#43293A" stroke-width="1.04" stroke-miterlimit="10" stroke-linecap="round" stroke-linejoin="round"/>
<path d="M125.999 161.483C123.405 161.483 121.283 159.361 121.283 156.767V90.507H130.715V156.767C130.715 159.361 128.593 161.483 125.999 161.483Z" fill="white"/>
<path opacity="0.78" d="M130.401 108.899H120.969V113.615H130.401V108.899Z" fill="#D9D9D9"/>
<path d="M125.999 161.483C123.405 161.483 121.283 159.361 121.283 156.767V90.507H130.715V156.767C130.715 159.361 128.593 161.483 125.999 161.483Z" stroke="#43293A" stroke-width="2.6" stroke-miterlimit="10" stroke-linecap="round" stroke-linejoin="round"/>
<path d="M118.141 105.677V120.087H121.285V116.943V115.659V108.821H130.717V115.659V116.943V120.087H133.861V105.677H118.141Z" fill="white"/>
<path d="M131.293 105.677H120.708C119.293 105.677 118.141 106.829 118.141 108.244V117.519C118.141 118.934 119.293 120.087 120.708 120.087H121.285V116.943V113.537V108.821H130.717V113.537V116.943V120.087H131.293C132.708 120.087 133.861 118.934 133.861 117.519V108.244C133.861 106.829 132.708 105.677 131.293 105.677Z" stroke="#43293A" stroke-width="2.08" stroke-miterlimit="10" stroke-linecap="round" stroke-linejoin="round"/>
<path d="M126 102.009C126.796 102.009 127.441 101.364 127.441 100.568C127.441 99.7719 126.796 99.1266 126 99.1266C125.204 99.1266 124.559 99.7719 124.559 100.568C124.559 101.364 125.204 102.009 126 102.009Z" fill="white"/>
<path d="M126 102.009C126.796 102.009 127.441 101.364 127.441 100.568C127.441 99.7719 126.796 99.1266 126 99.1266C125.204 99.1266 124.559 99.7719 124.559 100.568C124.559 101.364 125.204 102.009 126 102.009Z" stroke="#43293A" stroke-width="1.04" stroke-miterlimit="10" stroke-linecap="round" stroke-linejoin="round"/>
<path d="M126 116.104C126.796 116.104 127.441 115.459 127.441 114.663C127.441 113.867 126.796 113.222 126 113.222C125.204 113.222 124.559 113.867 124.559 114.663C124.559 115.459 125.204 116.104 126 116.104Z" fill="white"/>
<path d="M126 116.497C126.796 116.497 127.441 115.852 127.441 115.056C127.441 114.26 126.796 113.615 126 113.615C125.204 113.615 124.559 114.26 124.559 115.056C124.559 115.852 125.204 116.497 126 116.497Z" stroke="#43293A" stroke-width="1.04" stroke-miterlimit="10" stroke-linecap="round" stroke-linejoin="round"/>
<path d="M126 135.152C126.796 135.152 127.441 134.507 127.441 133.711C127.441 132.915 126.796 132.27 126 132.27C125.204 132.27 124.559 132.915 124.559 133.711C124.559 134.507 125.204 135.152 126 135.152Z" fill="#60BBE0"/>
<path d="M126 135.152C126.796 135.152 127.441 134.507 127.441 133.711C127.441 132.915 126.796 132.27 126 132.27C125.204 132.27 124.559 132.915 124.559 133.711C124.559 134.507 125.204 135.152 126 135.152Z" stroke="#43293A" stroke-width="1.04" stroke-miterlimit="10" stroke-linecap="round" stroke-linejoin="round"/>
<path d="M126 144.479C126.796 144.479 127.441 143.834 127.441 143.038C127.441 142.242 126.796 141.597 126 141.597C125.204 141.597 124.559 142.242 124.559 143.038C124.559 143.834 125.204 144.479 126 144.479Z" fill="#60BBE0"/>
<path d="M126 144.479C126.796 144.479 127.441 143.834 127.441 143.038C127.441 142.242 126.796 141.597 126 141.597C125.204 141.597 124.559 142.242 124.559 143.038C124.559 143.834 125.204 144.479 126 144.479Z" stroke="#43293A" stroke-width="1.04" stroke-miterlimit="10" stroke-linecap="round" stroke-linejoin="round"/>
<path d="M125.999 116.104C125.423 116.104 124.951 115.633 124.951 115.056V106.699C124.951 106.122 125.423 105.651 125.999 105.651C126.576 105.651 127.047 106.122 127.047 106.699V115.056C127.021 115.659 126.576 116.104 125.999 116.104Z" fill="white"/>
<path d="M125.999 116.104C125.423 116.104 124.951 115.633 124.951 115.056V106.699C124.951 106.122 125.423 105.651 125.999 105.651C126.576 105.651 127.047 106.122 127.047 106.699V115.056C127.021 115.659 126.576 116.104 125.999 116.104Z" stroke="#43293A" stroke-width="1.04" stroke-miterlimit="10" stroke-linecap="round" stroke-linejoin="round"/>
<path d="M130.715 90.507H121.283V93.913H130.715V90.507Z" fill="#43293A"/>
<path opacity="0.84" d="M96.6555 124.095C97.4803 124.095 98.1489 123.427 98.1489 122.602C98.1489 121.777 97.4803 121.108 96.6555 121.108C95.8307 121.108 95.1621 121.777 95.1621 122.602C95.1621 123.427 95.8307 124.095 96.6555 124.095Z" fill="#60BBE0"/>
<path d="M96.6555 124.095C97.4803 124.095 98.1489 123.427 98.1489 122.602C98.1489 121.777 97.4803 121.108 96.6555 121.108C95.8307 121.108 95.1621 121.777 95.1621 122.602C95.1621 123.427 95.8307 124.095 96.6555 124.095Z" stroke="#43293A" stroke-width="1.04" stroke-miterlimit="10" stroke-linecap="round" stroke-linejoin="round"/>
<path d="M103.073 94.9344C103.126 94.2532 102.733 93.5982 102.104 93.31C100.453 92.5502 98.5929 92.131 96.6541 92.131C94.7153 92.131 92.8551 92.5502 91.2045 93.31C90.5757 93.5982 90.1827 94.2532 90.2351 94.9344C90.5495 98.9168 92.6193 102.401 95.6847 104.576C96.2611 104.995 97.0209 104.995 97.5973 104.576C100.689 102.401 102.759 98.9168 103.073 94.9344Z" fill="white"/>
<path opacity="0.75" d="M97.624 101.694C97.0476 102.113 96.2878 102.113 95.7114 101.694C93.1176 99.8601 91.2574 97.0829 90.55 93.8865C90.3404 94.1747 90.2356 94.5415 90.2618 94.9345C90.5762 98.9169 92.646 102.401 95.7114 104.576C96.2878 104.995 97.0476 104.995 97.624 104.576C100.689 102.375 102.785 98.9169 103.074 94.9345C103.1 94.5677 102.995 94.2009 102.785 93.8865C102.078 97.1091 100.192 99.8601 97.624 101.694Z" fill="#E1E1E1"/>
<path d="M103.073 94.9344C103.126 94.2532 102.733 93.5982 102.104 93.31C100.453 92.5502 98.5929 92.131 96.6541 92.131C94.7153 92.131 92.8551 92.5502 91.2045 93.31C90.5757 93.5982 90.1827 94.2532 90.2351 94.9344C90.5495 98.9168 92.6193 102.401 95.6847 104.576C96.2611 104.995 97.0209 104.995 97.5973 104.576C100.689 102.401 102.759 98.9168 103.073 94.9344Z" stroke="#43293A" stroke-width="1.3" stroke-miterlimit="10" stroke-linecap="round" stroke-linejoin="round"/>
<path d="M93.7988 94.5937C94.7158 94.3317 95.6852 94.2269 96.6546 94.2269C97.624 94.2269 98.5934 94.3579 99.5104 94.5937C100.375 94.8295 100.899 95.7203 100.689 96.5849C100.427 97.6067 100.034 98.5761 99.5104 99.4931" stroke="#43293A" stroke-width="0.78" stroke-miterlimit="10" stroke-linecap="round" stroke-linejoin="round"/>
</g>
<defs>
<clipPath id="clip0_199_5878">
<rect width="190" height="193" fill="white"/>
</clipPath>
</defs>
</svg>
