<svg width="262" height="262" viewBox="0 0 262 262" fill="none" xmlns="http://www.w3.org/2000/svg">
<g clip-path="url(#clip0_199_5878)">
<g opacity="0.55">
<path opacity="0.55" d="M195.819 108.913V117.009H179.602" stroke="#474747" stroke-width="1.56" stroke-miterlimit="10" stroke-linecap="round" stroke-linejoin="round"/>
<path opacity="0.55" d="M212.01 117.009H195.818V108.913" stroke="#474747" stroke-width="1.56" stroke-miterlimit="10" stroke-linecap="round" stroke-linejoin="round"/>
<path opacity="0.55" d="M203.913 117.01H187.695V125.105H203.913V117.01Z" stroke="#474747" stroke-width="1.56" stroke-miterlimit="10" stroke-linecap="round" stroke-linejoin="round"/>
<path opacity="0.55" d="M200.403 133.227H195.818V125.132H212.01" stroke="#474747" stroke-width="1.56" stroke-miterlimit="10" stroke-linecap="round" stroke-linejoin="round"/>
<path opacity="0.55" d="M179.602 125.132H195.819V133.227H182.667" stroke="#474747" stroke-width="1.56" stroke-miterlimit="10" stroke-linecap="round" stroke-linejoin="round"/>
<path opacity="0.55" d="M174.072 117.01H187.696V125.132H179.6" stroke="#474747" stroke-width="1.56" stroke-miterlimit="10" stroke-linecap="round" stroke-linejoin="round"/>
<path opacity="0.55" d="M215.601 125.132H203.916V117.01H209.523" stroke="#474747" stroke-width="1.56" stroke-miterlimit="10" stroke-linecap="round" stroke-linejoin="round"/>
</g>
<g opacity="0.55">
<path opacity="0.55" d="M174.492 88.163L160.449 74.1198C158.405 72.0762 158.405 68.7488 160.449 66.7052L174.492 52.662C176.536 50.6184 179.863 50.6184 181.907 52.662L195.95 66.7052C197.993 68.7488 197.993 72.0762 195.95 74.1198L181.907 88.163C179.863 90.2066 176.536 90.2066 174.492 88.163Z" stroke="#333333" stroke-opacity="0.45" stroke-width="2.6" stroke-miterlimit="10" stroke-linecap="round" stroke-linejoin="round"/>
<path opacity="0.55" d="M178.186 56.3301V53.7625" stroke="#333333" stroke-opacity="0.45" stroke-width="1.56" stroke-miterlimit="10" stroke-linecap="round" stroke-linejoin="round"/>
<path opacity="0.55" d="M178.186 87.0625V84.4949" stroke="#333333" stroke-opacity="0.45" stroke-width="1.56" stroke-miterlimit="10" stroke-linecap="round" stroke-linejoin="round"/>
<path opacity="0.55" d="M192.281 70.4258H194.849" stroke="#333333" stroke-opacity="0.45" stroke-width="1.56" stroke-miterlimit="10" stroke-linecap="round" stroke-linejoin="round"/>
<path opacity="0.55" d="M161.549 70.4258H164.116" stroke="#333333" stroke-opacity="0.45" stroke-width="1.56" stroke-miterlimit="10" stroke-linecap="round" stroke-linejoin="round"/>
<path opacity="0.55" d="M178.185 70.4254L174.098 66.6002" stroke="#333333" stroke-opacity="0.45" stroke-width="2.08" stroke-miterlimit="10" stroke-linecap="round" stroke-linejoin="round"/>
<path opacity="0.55" d="M184.316 62.3297L178.186 70.8709" stroke="#333333" stroke-opacity="0.45" stroke-width="1.3" stroke-miterlimit="10" stroke-linecap="round" stroke-linejoin="round"/>
<path opacity="0.55" d="M178.526 72.4167C179.626 72.4167 180.518 71.5254 180.518 70.4255C180.518 69.3259 179.626 68.4343 178.526 68.4343C177.427 68.4343 176.535 69.3259 176.535 70.4255C176.535 71.5254 177.427 72.4167 178.526 72.4167Z" fill="#333333"/>
</g>
<g opacity="0.55">
<path opacity="0.55" d="M89.6291 69.1942H62.8789V95.8134H89.6291V69.1942Z" stroke="#333333" stroke-opacity="0.45" stroke-width="2.6" stroke-miterlimit="10" stroke-linecap="round" stroke-linejoin="round"/>
<path opacity="0.55" d="M114.755 49.8586H94.5547V76.4778H114.755V49.8586Z" stroke="#333333" stroke-opacity="0.45" stroke-width="2.6" stroke-miterlimit="10" stroke-linecap="round" stroke-linejoin="round"/>
<path opacity="0.55" d="M68.1172 83.1849L75.2698 76.0323" stroke="#333333" stroke-opacity="0.45" stroke-width="1.04" stroke-miterlimit="10" stroke-linecap="round" stroke-linejoin="round"/>
<path opacity="0.55" d="M74.5645 82.5037L81.0097 76.0323" stroke="#333333" stroke-opacity="0.45" stroke-width="1.04" stroke-miterlimit="10" stroke-linecap="round" stroke-linejoin="round"/>
<path opacity="0.55" d="M69.5352 87.534L72.1552 84.8878" stroke="#333333" stroke-opacity="0.45" stroke-width="1.04" stroke-miterlimit="10" stroke-linecap="round" stroke-linejoin="round"/>
<path opacity="0.55" d="M100.553 62.2773L105.452 57.3779" stroke="#333333" stroke-opacity="0.45" stroke-width="1.04" stroke-miterlimit="10" stroke-linecap="round" stroke-linejoin="round"/>
<path opacity="0.55" d="M107.863 61.0718L109.75 59.1854" stroke="#333333" stroke-opacity="0.45" stroke-width="1.04" stroke-miterlimit="10" stroke-linecap="round" stroke-linejoin="round"/>
<path opacity="0.55" d="M99.7695 69.1942L105.769 63.1682" stroke="#333333" stroke-opacity="0.45" stroke-width="1.04" stroke-miterlimit="10" stroke-linecap="round" stroke-linejoin="round"/>
</g>
<path d="M198.676 196.736H203.759" stroke="#E3E3E3" stroke-width="2.6" stroke-miterlimit="10" stroke-linecap="round" stroke-linejoin="round"/>
<path d="M208.213 196.736H209.47" stroke="#E3E3E3" stroke-width="2.6" stroke-miterlimit="10" stroke-linecap="round" stroke-linejoin="round"/>
<path d="M63.1426 196.736H193.881" stroke="#E3E3E3" stroke-width="2.6" stroke-miterlimit="10" stroke-linecap="round" stroke-linejoin="round"/>
<path d="M51.2207 196.736H57.3777" stroke="#E3E3E3" stroke-width="2.6" stroke-miterlimit="10" stroke-linecap="round" stroke-linejoin="round"/>
<path d="M99.3496 100.922C99.3496 98.8526 101.026 97.1758 103.096 97.1758C105.166 97.1758 106.843 98.8526 106.843 100.922H99.3496Z" fill="#60BBE0"/>
<path d="M99.3496 100.922C99.3496 98.8526 101.026 97.1758 103.096 97.1758C105.166 97.1758 106.843 98.8526 106.843 100.922H99.3496Z" fill="#60BBE0" stroke="#1D2D5A" stroke-width="2.08" stroke-miterlimit="10" stroke-linecap="round" stroke-linejoin="round"/>
<path d="M155.184 100.922C155.184 98.8526 156.86 97.1758 158.93 97.1758C161 97.1758 162.677 98.8526 162.677 100.922H155.184Z" fill="#60BBE0"/>
<path d="M155.184 100.922C155.184 98.8526 156.86 97.1758 158.93 97.1758C161 97.1758 162.677 98.8526 162.677 100.922H155.184Z" stroke="#1D2D5A" stroke-width="2.08" stroke-miterlimit="10" stroke-linecap="round" stroke-linejoin="round"/>
<path d="M160.449 104.145C154.973 104.145 150.545 102.049 147.951 98.1453L146.274 95.8921C142.816 91.2547 137.209 88.5037 131.314 88.5037H130.685C124.79 88.5037 119.21 91.2547 115.725 95.8921L114.048 98.1453C110.826 103.018 104.721 105.062 97.3066 103.752L97.8568 100.66C101.472 101.289 108.049 101.604 111.455 96.3899L111.507 96.3113L113.21 94.0319C117.271 88.6085 123.795 85.3859 130.685 85.3859H131.314C138.205 85.3859 144.729 88.6085 148.79 94.0319L150.571 96.3899C153.977 101.604 160.553 101.315 164.169 100.66L164.719 103.752C163.226 104.014 161.811 104.145 160.449 104.145Z" fill="#60BBE0"/>
<path d="M160.449 104.145C154.973 104.145 150.545 102.049 147.951 98.1453L146.274 95.8921C142.816 91.2547 137.209 88.5037 131.314 88.5037H130.685C124.79 88.5037 119.21 91.2547 115.725 95.8921L114.048 98.1453C110.826 103.018 104.721 105.062 97.3066 103.752L97.8568 100.66C101.472 101.289 108.049 101.604 111.455 96.3899L111.507 96.3113L113.21 94.0319C117.271 88.6085 123.795 85.3859 130.685 85.3859H131.314C138.205 85.3859 144.729 88.6085 148.79 94.0319L150.571 96.3899C153.977 101.604 160.553 101.315 164.169 100.66L164.719 103.752C163.226 104.014 161.811 104.145 160.449 104.145Z" stroke="#1D2D5A" stroke-width="2.6" stroke-miterlimit="10" stroke-linecap="round" stroke-linejoin="round"/>
<path d="M79.125 145.855H74.1732L68.5664 182.797C68.5664 182.797 72.5226 180.937 73.8588 180.937C78.1032 180.937 79.1512 182.797 79.1512 182.797V145.855H79.125Z" fill="#60BBE0"/>
<path d="M79.125 145.855H74.1732L68.5664 182.797C68.5664 182.797 72.5226 180.937 73.8588 180.937C78.1032 180.937 79.1512 182.797 79.1512 182.797V145.855H79.125Z" stroke="#43293A" stroke-width="2.6" stroke-miterlimit="10" stroke-linecap="round" stroke-linejoin="round"/>
<path d="M79.125 145.855H74.1732L68.5664 182.797C68.5664 182.797 72.5226 180.937 73.8588 180.937C78.1032 180.937 79.1512 182.797 79.1512 182.797V145.855H79.125Z" stroke="#1D2D5A" stroke-width="2.6" stroke-miterlimit="10" stroke-linecap="round" stroke-linejoin="round"/>
<path d="M78.4168 145.855H74.1986L68.5918 182.797C68.5918 182.797 71.4214 181.487 73.0982 181.068L78.4168 145.855Z" fill="#324782"/>
<path d="M78.4168 145.855H74.1986L68.5918 182.797C68.5918 182.797 71.4214 181.487 73.0982 181.068L78.4168 145.855Z" stroke="#1D2D5A" stroke-width="2.6" stroke-miterlimit="10" stroke-linecap="round" stroke-linejoin="round"/>
<path d="M182.878 145.855H187.83L193.436 182.797C193.436 182.797 189.48 180.937 188.144 180.937C183.9 180.937 182.852 182.797 182.852 182.797V145.855H182.878Z" fill="#60BBE0"/>
<path d="M182.878 145.855H187.83L193.436 182.797C193.436 182.797 189.48 180.937 188.144 180.937C183.9 180.937 182.852 182.797 182.852 182.797V145.855H182.878Z" stroke="#43293A" stroke-width="2.6" stroke-miterlimit="10" stroke-linecap="round" stroke-linejoin="round"/>
<path d="M182.878 145.855H187.83L193.436 182.797C193.436 182.797 189.48 180.937 188.144 180.937C183.9 180.937 182.852 182.797 182.852 182.797V145.855H182.878Z" stroke="#1D2D5A" stroke-width="2.6" stroke-miterlimit="10" stroke-linecap="round" stroke-linejoin="round"/>
<path d="M183.584 145.855H187.802L193.409 182.797C193.409 182.797 190.579 181.487 188.903 181.068L183.584 145.855Z" fill="#1D2D5A"/>
<path d="M183.584 145.855H187.802L193.409 182.797C193.409 182.797 190.579 181.487 188.903 181.068L183.584 145.855Z" stroke="#1D2D5A" stroke-width="2.6" stroke-miterlimit="10" stroke-linecap="round" stroke-linejoin="round"/>
<path d="M177.059 196.579H84.8349C81.3503 196.579 78.5469 193.775 78.5469 190.291V124.791H183.347V190.291C183.347 193.775 180.543 196.579 177.059 196.579Z" fill="#324782"/>
<path opacity="0.48" d="M145.671 179.47H116.327C114.021 179.47 112.135 177.584 112.135 175.278V164.615H149.863V175.278C149.863 177.61 147.976 179.47 145.671 179.47Z" fill="#2C385A" stroke="white" stroke-opacity="0.17" stroke-width="2.6" stroke-miterlimit="10"/>
<path d="M134.119 177.819C134.119 179.549 132.73 180.937 131.001 180.937C129.272 180.937 127.883 179.549 127.883 177.819H125.525C125.525 180.832 127.988 183.295 131.001 183.295C134.014 183.295 136.477 180.832 136.477 177.819H134.119Z" fill="white"/>
<path d="M134.119 177.819C134.119 179.549 132.73 180.937 131.001 180.937C129.272 180.937 127.883 179.549 127.883 177.819H125.525C125.525 180.832 127.988 183.295 131.001 183.295C134.014 183.295 136.477 180.832 136.477 177.819H134.119Z" stroke="#1D2D5A" stroke-width="1.04" stroke-miterlimit="10" stroke-linecap="round" stroke-linejoin="round"/>
<path opacity="0.48" d="M177.112 193.618H84.8876C81.403 193.618 78.5996 190.815 78.5996 187.33V190.422C78.5996 193.906 81.403 196.71 84.8876 196.71H177.112C180.596 196.71 183.4 193.906 183.4 190.422V187.33C183.4 190.815 180.596 193.618 177.112 193.618Z" fill="#2C385A"/>
<path d="M183.4 154.554V125.97H78.5996V154.554C80.0144 155.235 81.534 155.733 83.1584 156.074C96.8086 158.825 111.743 160.108 130.161 160.108H131.838C150.257 160.108 165.191 158.825 178.841 156.074C180.465 155.733 181.985 155.235 183.4 154.554Z" fill="#2C385A"/>
<path d="M145.671 177.636H116.327C114.021 177.636 112.135 175.75 112.135 173.444V162.781H149.863V173.444C149.863 175.776 147.976 177.636 145.671 177.636Z" fill="#60BBE0"/>
<path opacity="0.45" d="M112.135 168.597C113.576 169.96 115.515 170.798 117.637 170.798H144.361C146.483 170.798 148.422 169.96 149.863 168.597V163.829H112.135V168.597Z" fill="#60BBE0"/>
<path d="M118.345 174.754H116.328C115.463 174.754 114.756 174.047 114.756 173.182V165.139" stroke="#43293A" stroke-width="0.78" stroke-miterlimit="10" stroke-linecap="round" stroke-linejoin="round" stroke-dasharray="1.3 1.3"/>
<path d="M147.243 170.536V173.182C147.243 174.047 146.536 174.754 145.671 174.754H121.043" stroke="#43293A" stroke-width="0.78" stroke-miterlimit="10" stroke-linecap="round" stroke-linejoin="round" stroke-dasharray="1.3 1.3"/>
<path d="M145.671 177.636H116.327C114.021 177.636 112.135 175.75 112.135 173.444V162.781H149.863V173.444C149.863 175.776 147.976 177.636 145.671 177.636Z" stroke="#1D2D5A" stroke-width="2.6" stroke-miterlimit="10" stroke-linecap="round" stroke-linejoin="round"/>
<path d="M144.364 168.178H117.64C114.103 168.178 111.221 165.296 111.221 161.759V155.366H150.783V161.785C150.783 165.322 147.901 168.178 144.364 168.178Z" fill="white"/>
<path opacity="0.84" d="M111.221 159.558C117.142 159.899 123.404 160.082 130.163 160.082H131.84C138.574 160.082 144.861 159.899 150.783 159.558V155.366H111.221V159.558Z" fill="#E1E1E1"/>
<path d="M144.364 168.178H117.64C114.103 168.178 111.221 165.296 111.221 161.759V155.366H150.783V161.785C150.783 165.322 147.901 168.178 144.364 168.178Z" stroke="#1D2D5A" stroke-width="2.6" stroke-miterlimit="10" stroke-linecap="round" stroke-linejoin="round"/>
<path d="M113.84 161.471V156.545H148.162V161.471C148.162 163.567 146.459 165.27 144.363 165.27H117.639C115.543 165.27 113.84 163.567 113.84 161.471Z" stroke="#43293A" stroke-width="0.78" stroke-miterlimit="10" stroke-linecap="round" stroke-linejoin="round" stroke-dasharray="1.3 1.3"/>
<path d="M177.112 196.71H84.8876C81.403 196.71 78.5996 193.906 78.5996 190.422V124.922H183.4V190.422C183.4 193.906 180.596 196.71 177.112 196.71Z" stroke="#1D2D5A" stroke-width="2.6" stroke-miterlimit="10" stroke-linecap="round" stroke-linejoin="round"/>
<path d="M84.889 192.518C83.7362 192.518 82.793 191.575 82.793 190.422V129.114H179.209V190.422C179.209 191.575 178.266 192.518 177.113 192.518H84.889Z" stroke="#1D2D5A" stroke-width="1.04" stroke-miterlimit="10" stroke-linecap="round" stroke-linejoin="round" stroke-dasharray="1.82 1.82"/>
<path d="M74.8 109.83L71.263 135.637C70.1626 143.628 75.2978 150.781 83.6556 152.458C99.0612 155.549 114.991 156.466 130.999 156.44C147.007 156.466 162.937 155.576 178.342 152.458C186.7 150.781 191.835 143.628 190.735 135.637L187.198 109.83C186.753 106.582 183.53 103.935 179.836 103.752C147.243 102.206 114.781 102.206 82.1884 103.752C78.4942 103.935 75.2454 106.582 74.8 109.83Z" fill="#60BBE0"/>
<path opacity="0.55" d="M190.735 135.637L187.198 109.83C186.753 106.582 183.53 103.935 179.836 103.752C147.243 102.206 114.781 102.206 82.1884 103.752C78.4942 103.935 75.2716 106.582 74.8262 109.83L71.263 135.637C70.1626 143.628 75.2978 150.781 83.6556 152.458C99.0612 155.549 114.991 156.466 130.999 156.44C147.007 156.466 162.937 155.576 178.342 152.458C186.674 150.781 191.809 143.628 190.735 135.637ZM178.316 152.536C164.849 155.366 150.099 156.676 131.837 156.676H130.134C111.873 156.676 97.1224 155.366 83.6556 152.536C76.5554 151.043 72.1014 144.755 73.0446 137.602L76.6078 110.433C76.896 108.206 79.2278 106.32 81.7954 106.189C98.1442 105.376 114.676 104.957 130.973 104.957C147.269 104.957 163.828 105.376 180.15 106.189C182.718 106.32 185.05 108.232 185.338 110.433L188.901 137.602C189.897 144.755 185.416 151.043 178.316 152.536Z" fill="#48A0C3"/>
<path opacity="0.45" d="M178.344 149.943C162.939 153.034 147.009 153.951 131.001 153.925C114.993 153.951 99.063 153.06 83.6574 149.943C76.5048 148.502 71.7102 143.052 71.16 136.502C70.5312 144.152 75.5878 150.833 83.6574 152.458C99.063 155.549 114.993 156.466 131.001 156.44C147.009 156.466 162.939 155.576 178.344 152.458C186.388 150.833 191.444 144.152 190.842 136.502C190.291 143.052 185.497 148.502 178.344 149.943Z" fill="#53ACD0"/>
<path d="M74.8 109.83L71.263 135.637C70.1626 143.628 75.2978 150.781 83.6556 152.458C99.0612 155.549 114.991 156.466 130.999 156.44C147.007 156.466 162.937 155.576 178.342 152.458C186.7 150.781 191.835 143.628 190.735 135.637L187.198 109.83C186.753 106.582 183.53 103.935 179.836 103.752C147.243 102.206 114.781 102.206 82.1884 103.752C78.4942 103.935 75.2454 106.582 74.8 109.83Z" stroke="#1D2D5A" stroke-width="2.6" stroke-miterlimit="10" stroke-linecap="round" stroke-linejoin="round"/>
<path d="M130.161 152.222C112.214 152.222 97.6991 150.99 84.4943 148.318C78.3373 147.087 74.6169 142.082 75.4291 136.187L78.9661 110.38C79.1233 109.28 80.5643 108.022 82.3721 107.918C98.5113 107.158 114.886 106.765 130.999 106.765C147.112 106.765 163.461 107.158 179.626 107.918C181.46 107.996 182.875 109.28 183.032 110.38L186.569 136.187C187.382 142.109 183.661 147.087 177.504 148.318C164.299 150.99 149.785 152.222 131.838 152.222H130.161Z" stroke="#43293A" stroke-width="1.04" stroke-linecap="round" stroke-linejoin="round" stroke-dasharray="1.82 1.82"/>
<path d="M101.001 200.483C98.4074 200.483 96.2852 198.361 96.2852 195.767V129.507H105.717V195.767C105.717 198.361 103.621 200.483 101.001 200.483Z" fill="white"/>
<path d="M105.717 129.507H96.2852V132.913H105.717V129.507Z" fill="#43293A"/>
<path opacity="0.78" d="M105.717 147.821H96.2852V152.537H105.717V147.821Z" fill="#D9D9D9"/>
<path d="M101.001 200.483C98.4074 200.483 96.2852 198.361 96.2852 195.767V129.507H105.717V195.767C105.717 198.361 103.621 200.483 101.001 200.483Z" stroke="#43293A" stroke-width="2.6" stroke-miterlimit="10" stroke-linecap="round" stroke-linejoin="round"/>
<path d="M93.1406 144.677V159.087H96.2846V155.943V154.659V147.821H105.717V154.659V155.943V159.087H108.861V144.677H93.1406Z" fill="white"/>
<path d="M106.32 144.677H95.7356C94.3208 144.677 93.168 145.829 93.168 147.244V156.519C93.168 157.934 94.3208 159.087 95.7356 159.087H96.312V155.943V152.537V147.821H105.744V152.537V155.943V159.087H106.32C107.735 159.087 108.888 157.934 108.888 156.519V147.244C108.862 145.829 107.735 144.677 106.32 144.677Z" stroke="#43293A" stroke-width="2.08" stroke-miterlimit="10" stroke-linecap="round" stroke-linejoin="round"/>
<path d="M101.002 141.009C101.798 141.009 102.443 140.364 102.443 139.568C102.443 138.772 101.798 138.127 101.002 138.127C100.206 138.127 99.5605 138.772 99.5605 139.568C99.5605 140.364 100.206 141.009 101.002 141.009Z" fill="white"/>
<path d="M101.002 141.009C101.798 141.009 102.443 140.364 102.443 139.568C102.443 138.772 101.798 138.127 101.002 138.127C100.206 138.127 99.5605 138.772 99.5605 139.568C99.5605 140.364 100.206 141.009 101.002 141.009Z" stroke="#43293A" stroke-width="1.04" stroke-miterlimit="10" stroke-linecap="round" stroke-linejoin="round"/>
<path d="M101.002 155.104C101.798 155.104 102.443 154.459 102.443 153.663C102.443 152.867 101.798 152.222 101.002 152.222C100.206 152.222 99.5605 152.867 99.5605 153.663C99.5605 154.459 100.206 155.104 101.002 155.104Z" fill="white"/>
<path d="M101.002 155.497C101.798 155.497 102.443 154.852 102.443 154.056C102.443 153.26 101.798 152.615 101.002 152.615C100.206 152.615 99.5605 153.26 99.5605 154.056C99.5605 154.852 100.206 155.497 101.002 155.497Z" stroke="#43293A" stroke-width="1.04" stroke-miterlimit="10" stroke-linecap="round" stroke-linejoin="round"/>
<path d="M101.002 174.152C101.798 174.152 102.443 173.507 102.443 172.711C102.443 171.915 101.798 171.27 101.002 171.27C100.206 171.27 99.5605 171.915 99.5605 172.711C99.5605 173.507 100.206 174.152 101.002 174.152Z" fill="#60BBE0"/>
<path d="M101.002 174.152C101.798 174.152 102.443 173.507 102.443 172.711C102.443 171.915 101.798 171.27 101.002 171.27C100.206 171.27 99.5605 171.915 99.5605 172.711C99.5605 173.507 100.206 174.152 101.002 174.152Z" stroke="#43293A" stroke-width="1.04" stroke-miterlimit="10" stroke-linecap="round" stroke-linejoin="round"/>
<path d="M101.002 183.479C101.798 183.479 102.443 182.834 102.443 182.038C102.443 181.242 101.798 180.597 101.002 180.597C100.206 180.597 99.5605 181.242 99.5605 182.038C99.5605 182.834 100.206 183.479 101.002 183.479Z" fill="#60BBE0"/>
<path d="M101.002 183.479C101.798 183.479 102.443 182.834 102.443 182.038C102.443 181.242 101.798 180.597 101.002 180.597C100.206 180.597 99.5605 181.242 99.5605 182.038C99.5605 182.834 100.206 183.479 101.002 183.479Z" stroke="#43293A" stroke-width="1.04" stroke-miterlimit="10" stroke-linecap="round" stroke-linejoin="round"/>
<path d="M101.001 155.104C100.425 155.104 99.9531 154.633 99.9531 154.056V145.699C99.9531 145.122 100.425 144.651 101.001 144.651C101.578 144.651 102.049 145.122 102.049 145.699V154.056C102.049 154.659 101.604 155.104 101.001 155.104Z" fill="white"/>
<path d="M101.001 155.104C100.425 155.104 99.9531 154.633 99.9531 154.056V145.699C99.9531 145.122 100.425 144.651 101.001 144.651C101.578 144.651 102.049 145.122 102.049 145.699V154.056C102.049 154.659 101.604 155.104 101.001 155.104Z" stroke="#43293A" stroke-width="1.04" stroke-miterlimit="10" stroke-linecap="round" stroke-linejoin="round"/>
<path d="M160.999 200.483C158.405 200.483 156.283 198.361 156.283 195.767V129.507H165.715V195.767C165.715 198.361 163.593 200.483 160.999 200.483Z" fill="white"/>
<path opacity="0.78" d="M165.401 147.899H155.969V152.615H165.401V147.899Z" fill="#D9D9D9"/>
<path d="M160.999 200.483C158.405 200.483 156.283 198.361 156.283 195.767V129.507H165.715V195.767C165.715 198.361 163.593 200.483 160.999 200.483Z" stroke="#43293A" stroke-width="2.6" stroke-miterlimit="10" stroke-linecap="round" stroke-linejoin="round"/>
<path d="M153.141 144.677V159.087H156.285V155.943V154.659V147.821H165.717V154.659V155.943V159.087H168.861V144.677H153.141Z" fill="white"/>
<path d="M166.293 144.677H155.708C154.293 144.677 153.141 145.829 153.141 147.244V156.519C153.141 157.934 154.293 159.087 155.708 159.087H156.285V155.943V152.537V147.821H165.717V152.537V155.943V159.087H166.293C167.708 159.087 168.861 157.934 168.861 156.519V147.244C168.861 145.829 167.708 144.677 166.293 144.677Z" stroke="#43293A" stroke-width="2.08" stroke-miterlimit="10" stroke-linecap="round" stroke-linejoin="round"/>
<path d="M161 141.009C161.796 141.009 162.441 140.364 162.441 139.568C162.441 138.772 161.796 138.127 161 138.127C160.204 138.127 159.559 138.772 159.559 139.568C159.559 140.364 160.204 141.009 161 141.009Z" fill="white"/>
<path d="M161 141.009C161.796 141.009 162.441 140.364 162.441 139.568C162.441 138.772 161.796 138.127 161 138.127C160.204 138.127 159.559 138.772 159.559 139.568C159.559 140.364 160.204 141.009 161 141.009Z" stroke="#43293A" stroke-width="1.04" stroke-miterlimit="10" stroke-linecap="round" stroke-linejoin="round"/>
<path d="M161 155.104C161.796 155.104 162.441 154.459 162.441 153.663C162.441 152.867 161.796 152.222 161 152.222C160.204 152.222 159.559 152.867 159.559 153.663C159.559 154.459 160.204 155.104 161 155.104Z" fill="white"/>
<path d="M161 155.497C161.796 155.497 162.441 154.852 162.441 154.056C162.441 153.26 161.796 152.615 161 152.615C160.204 152.615 159.559 153.26 159.559 154.056C159.559 154.852 160.204 155.497 161 155.497Z" stroke="#43293A" stroke-width="1.04" stroke-miterlimit="10" stroke-linecap="round" stroke-linejoin="round"/>
<path d="M161 174.152C161.796 174.152 162.441 173.507 162.441 172.711C162.441 171.915 161.796 171.27 161 171.27C160.204 171.27 159.559 171.915 159.559 172.711C159.559 173.507 160.204 174.152 161 174.152Z" fill="#60BBE0"/>
<path d="M161 174.152C161.796 174.152 162.441 173.507 162.441 172.711C162.441 171.915 161.796 171.27 161 171.27C160.204 171.27 159.559 171.915 159.559 172.711C159.559 173.507 160.204 174.152 161 174.152Z" stroke="#43293A" stroke-width="1.04" stroke-miterlimit="10" stroke-linecap="round" stroke-linejoin="round"/>
<path d="M161 183.479C161.796 183.479 162.441 182.834 162.441 182.038C162.441 181.242 161.796 180.597 161 180.597C160.204 180.597 159.559 181.242 159.559 182.038C159.559 182.834 160.204 183.479 161 183.479Z" fill="#60BBE0"/>
<path d="M161 183.479C161.796 183.479 162.441 182.834 162.441 182.038C162.441 181.242 161.796 180.597 161 180.597C160.204 180.597 159.559 181.242 159.559 182.038C159.559 182.834 160.204 183.479 161 183.479Z" stroke="#43293A" stroke-width="1.04" stroke-miterlimit="10" stroke-linecap="round" stroke-linejoin="round"/>
<path d="M160.999 155.104C160.423 155.104 159.951 154.633 159.951 154.056V145.699C159.951 145.122 160.423 144.651 160.999 144.651C161.576 144.651 162.047 145.122 162.047 145.699V154.056C162.021 154.659 161.576 155.104 160.999 155.104Z" fill="white"/>
<path d="M160.999 155.104C160.423 155.104 159.951 154.633 159.951 154.056V145.699C159.951 145.122 160.423 144.651 160.999 144.651C161.576 144.651 162.047 145.122 162.047 145.699V154.056C162.021 154.659 161.576 155.104 160.999 155.104Z" stroke="#43293A" stroke-width="1.04" stroke-miterlimit="10" stroke-linecap="round" stroke-linejoin="round"/>
<path d="M165.715 129.507H156.283V132.913H165.715V129.507Z" fill="#43293A"/>
<path opacity="0.84" d="M131.656 163.095C132.48 163.095 133.149 162.427 133.149 161.602C133.149 160.777 132.48 160.108 131.656 160.108C130.831 160.108 130.162 160.777 130.162 161.602C130.162 162.427 130.831 163.095 131.656 163.095Z" fill="#60BBE0"/>
<path d="M131.656 163.095C132.48 163.095 133.149 162.427 133.149 161.602C133.149 160.777 132.48 160.108 131.656 160.108C130.831 160.108 130.162 160.777 130.162 161.602C130.162 162.427 130.831 163.095 131.656 163.095Z" stroke="#43293A" stroke-width="1.04" stroke-miterlimit="10" stroke-linecap="round" stroke-linejoin="round"/>
<path d="M138.073 133.934C138.126 133.253 137.733 132.598 137.104 132.31C135.453 131.55 133.593 131.131 131.654 131.131C129.715 131.131 127.855 131.55 126.205 132.31C125.576 132.598 125.183 133.253 125.235 133.934C125.55 137.917 127.619 141.401 130.685 143.576C131.261 143.995 132.021 143.995 132.597 143.576C135.689 141.401 137.759 137.917 138.073 133.934Z" fill="white"/>
<path opacity="0.75" d="M132.624 140.694C132.048 141.113 131.288 141.113 130.711 140.694C128.118 138.86 126.257 136.083 125.55 132.886C125.34 133.175 125.236 133.541 125.262 133.934C125.576 137.917 127.646 141.401 130.711 143.576C131.288 143.995 132.048 143.995 132.624 143.576C135.689 141.375 137.785 137.917 138.074 133.934C138.1 133.568 137.995 133.201 137.785 132.886C137.078 136.109 135.192 138.86 132.624 140.694Z" fill="#E1E1E1"/>
<path d="M138.073 133.934C138.126 133.253 137.733 132.598 137.104 132.31C135.453 131.55 133.593 131.131 131.654 131.131C129.715 131.131 127.855 131.55 126.205 132.31C125.576 132.598 125.183 133.253 125.235 133.934C125.55 137.917 127.619 141.401 130.685 143.576C131.261 143.995 132.021 143.995 132.597 143.576C135.689 141.401 137.759 137.917 138.073 133.934Z" stroke="#43293A" stroke-width="1.3" stroke-miterlimit="10" stroke-linecap="round" stroke-linejoin="round"/>
<path d="M128.799 133.594C129.716 133.332 130.685 133.227 131.655 133.227C132.624 133.227 133.593 133.358 134.51 133.594C135.375 133.83 135.899 134.72 135.689 135.585C135.427 136.607 135.034 137.576 134.51 138.493" stroke="#43293A" stroke-width="0.78" stroke-miterlimit="10" stroke-linecap="round" stroke-linejoin="round"/>
</g>
<defs>
<clipPath id="clip0_199_5878">
<rect width="262" height="262" fill="white"/>
</clipPath>
</defs>
</svg>
