<svg width="39" height="39" viewBox="0 0 39 39" fill="none" xmlns="http://www.w3.org/2000/svg">
<rect width="39" height="39" rx="10" fill="white" fill-opacity="0.11"/>
<rect x="0.5" y="0.5" width="38" height="38" rx="9.5" stroke="white" stroke-opacity="0.15"/>
<path d="M27.3486 15.2912C27.2348 15.015 27.0073 14.7875 26.7311 14.6737C26.6011 14.625 26.4548 14.5925 26.3086 14.5925H23.2861C22.6523 14.5925 22.1486 15.0962 22.1486 15.73C22.1486 16.3637 22.6523 16.8675 23.2861 16.8675H23.5786L20.1498 20.2962L18.4923 17.8262C18.2973 17.55 18.0048 17.355 17.6636 17.3225C17.3061 17.29 16.9973 17.4037 16.7536 17.6475L11.9111 22.49C11.4723 22.9287 11.4723 23.6437 11.9111 24.0987C12.1386 24.3262 12.4148 24.4237 12.7073 24.4237C12.9998 24.4237 13.2923 24.31 13.5036 24.0987L17.3711 20.2312L19.0286 22.7012C19.2236 22.9775 19.5161 23.1725 19.8573 23.205C20.2148 23.2375 20.5236 23.1237 20.7673 22.88L25.1873 18.46V18.7525C25.1873 19.3862 25.6911 19.89 26.3248 19.89C26.9586 19.89 27.4623 19.3862 27.4623 18.7525V15.7137C27.4298 15.5675 27.4136 15.4212 27.3486 15.2912Z" fill="white"/>
</svg>
