<svg width="205" height="193" viewBox="0 0 205 193" fill="none" xmlns="http://www.w3.org/2000/svg">
<g clip-path="url(#clip0_199_5793)">
<path d="M243 -48H-34V229H243V-48Z" fill="white"/>
<g opacity="0.15">
<path opacity="0.15" d="M9.62891 59.4484H31.6227V70.1683H9.62891" stroke="#474747" stroke-width="1.662" stroke-miterlimit="10" stroke-linecap="round" stroke-linejoin="round"/>
<path opacity="0.15" d="M53.5872 70.1685H31.6211" stroke="#474747" stroke-width="1.662" stroke-miterlimit="10" stroke-linecap="round" stroke-linejoin="round"/>
<path opacity="0.15" d="M31.6211 59.4484H40.0419" stroke="#474747" stroke-width="1.662" stroke-miterlimit="10" stroke-linecap="round" stroke-linejoin="round"/>
<path opacity="0.15" d="M42.5911 70.1685H20.625V80.8884H42.5911V70.1685Z" stroke="#474747" stroke-width="1.662" stroke-miterlimit="10" stroke-linecap="round" stroke-linejoin="round"/>
<path opacity="0.15" d="M13.0625 80.9436H31.6215V91.6635H24.5026" stroke="#474747" stroke-width="1.662" stroke-miterlimit="10" stroke-linecap="round" stroke-linejoin="round"/>
<path opacity="0.15" d="M53.5872 80.9436H31.6211V91.6635H53.5872V80.9436Z" stroke="#474747" stroke-width="1.662" stroke-miterlimit="10" stroke-linecap="round" stroke-linejoin="round"/>
<path opacity="0.15" d="M126.801 98.2561H148.795V108.948H126.801" stroke="#474747" stroke-width="1.662" stroke-miterlimit="10" stroke-linecap="round" stroke-linejoin="round"/>
<path opacity="0.15" d="M170.759 108.948H148.793" stroke="#474747" stroke-width="1.662" stroke-miterlimit="10" stroke-linecap="round" stroke-linejoin="round"/>
<path opacity="0.15" d="M148.793 98.2561H157.214" stroke="#474747" stroke-width="1.662" stroke-miterlimit="10" stroke-linecap="round" stroke-linejoin="round"/>
<path opacity="0.15" d="M159.763 108.948H137.797V119.668H159.763V108.948Z" stroke="#474747" stroke-width="1.662" stroke-miterlimit="10" stroke-linecap="round" stroke-linejoin="round"/>
<path opacity="0.15" d="M130.234 119.724H148.793V130.444H141.674" stroke="#474747" stroke-width="1.662" stroke-miterlimit="10" stroke-linecap="round" stroke-linejoin="round"/>
<path opacity="0.15" d="M162.948 130.444H148.793V119.724H167.103" stroke="#474747" stroke-width="1.662" stroke-miterlimit="10" stroke-linecap="round" stroke-linejoin="round"/>
<path opacity="0.15" d="M89.2393 19.311H55.1406V46.9556H89.2393V19.311Z" stroke="#474747" stroke-width="1.662" stroke-miterlimit="10" stroke-linecap="round" stroke-linejoin="round"/>
<path opacity="0.15" d="M59.8477 40.5569L66.0802 31.499L72.562 39.5043" stroke="#474747" stroke-width="1.662" stroke-miterlimit="10" stroke-linecap="round" stroke-linejoin="round"/>
<path opacity="0.15" d="M70.1797 36.5683L78.9052 28.1198L85.0823 40.5571" stroke="#474747" stroke-width="1.662" stroke-miterlimit="10" stroke-linecap="round" stroke-linejoin="round"/>
<path opacity="0.15" d="M67.9102 33.7427C68.3534 32.4408 69.5722 31.499 71.0126 31.499C72.2037 31.499 73.2563 32.1361 73.838 33.1056" stroke="#474747" stroke-width="1.662" stroke-miterlimit="10" stroke-linecap="round" stroke-linejoin="round"/>
<path opacity="0.15" d="M177.906 65.6255H129.403C127.603 65.6255 126.162 64.1851 126.162 62.3846C126.162 60.5841 127.603 59.1437 129.403 59.1437H177.906C179.706 59.1437 181.147 60.5841 181.147 62.3846C181.147 64.1851 179.706 65.6255 177.906 65.6255Z" stroke="#474747" stroke-width="1.662" stroke-miterlimit="10" stroke-linecap="round" stroke-linejoin="round"/>
<path opacity="0.15" d="M161.23 59.1436H147.02L144.084 41.0001H164.194L161.23 59.1436Z" stroke="#474747" stroke-width="1.662" stroke-miterlimit="10" stroke-linecap="round" stroke-linejoin="round"/>
<path opacity="0.15" d="M166.966 35.7371H141.398V41.0001H166.966V35.7371Z" stroke="#474747" stroke-width="1.662" stroke-miterlimit="10" stroke-linecap="round" stroke-linejoin="round"/>
<g opacity="0.15">
<path opacity="0.15" d="M157.437 35.7372C155.692 35.7372 153.947 35.7372 152.202 35.7372C150.761 30.7235 149.515 25.4605 149.681 20.3083C149.875 17.843 152.534 15.7655 154.833 15.7655C157.132 15.7655 159.791 17.843 159.985 20.3083C160.096 25.4605 158.85 30.7235 157.437 35.7372Z" stroke="#474747" stroke-width="1.662" stroke-miterlimit="10" stroke-linecap="round" stroke-linejoin="round"/>
</g>
<path opacity="0.15" d="M160.096 19.6991L163.724 13.6882C164.417 12.5248 165.996 12.2755 167.021 13.1619C168.046 14.0483 168.018 15.6272 166.965 16.4859L160.151 22.0813" stroke="#474747" stroke-width="1.662" stroke-miterlimit="10" stroke-linecap="round" stroke-linejoin="round"/>
<path opacity="0.15" d="M163.78 13.6326L162.062 8.25876C161.785 7.42776 162.339 6.56906 163.198 6.45826C164.057 6.34746 164.804 7.01226 164.804 7.87096L164.666 12.2199" stroke="#474747" stroke-width="1.662" stroke-miterlimit="10" stroke-linecap="round" stroke-linejoin="round"/>
</g>
<path d="M115.593 131.302L152.141 56.3295L115.962 38.6926L79.4141 113.665L115.593 131.302Z" fill="#5EDC81"/>
<path d="M115.593 131.302L152.141 56.3295L115.962 38.6926L79.4141 113.665L115.593 131.302Z" stroke="#474747" stroke-width="1.662" stroke-miterlimit="10" stroke-linecap="round" stroke-linejoin="round"/>
<path d="M137.824 54.4623L126.246 48.8115C124.057 53.3266 118.628 55.1825 114.113 52.9942L85.582 111.497L113.476 125.097L142.007 66.5949C137.492 64.4066 135.608 58.9774 137.824 54.4623Z" fill="#F6F9EA"/>
<path d="M137.824 54.4623L126.246 48.8115C124.057 53.3266 118.628 55.1825 114.113 52.9942L85.582 111.497L113.476 125.097L142.007 66.5949C137.492 64.4066 135.608 58.9774 137.824 54.4623Z" stroke="#474747" stroke-width="1.662" stroke-miterlimit="10" stroke-linecap="round" stroke-linejoin="round"/>
<path d="M145.977 58.4406L118.09 44.8459L85.584 111.527L113.472 125.121L145.977 58.4406Z" stroke="#474747" stroke-width="1.662" stroke-miterlimit="10" stroke-linecap="round" stroke-linejoin="round"/>
<path d="M118.544 88.6442C123.791 88.6442 128.045 84.3906 128.045 79.1431C128.045 73.8959 123.791 69.642 118.544 69.642C113.297 69.642 109.043 73.8959 109.043 79.1431C109.043 84.3906 113.297 88.6442 118.544 88.6442Z" fill="#77BA85"/>
<path d="M118.544 88.6442C123.791 88.6442 128.045 84.3906 128.045 79.1431C128.045 73.8959 123.791 69.642 118.544 69.642C113.297 69.642 109.043 73.8959 109.043 79.1431C109.043 84.3906 113.297 88.6442 118.544 88.6442Z" stroke="#474747" stroke-width="1.662" stroke-miterlimit="10" stroke-linecap="round" stroke-linejoin="round"/>
<path opacity="0.15" d="M12.8125 159.39H196.186" stroke="#474747" stroke-width="1.662" stroke-miterlimit="10" stroke-linecap="round" stroke-linejoin="round"/>
<path d="M120.954 159.39H62.7841C53.6154 159.39 46.1641 151.939 46.1641 142.77V77.3978C46.1641 68.2291 53.6154 60.7778 62.7841 60.7778H120.954C130.123 60.7778 137.574 68.2291 137.574 77.3978V142.77C137.574 151.966 130.15 159.39 120.954 159.39Z" fill="#F58870"/>
<path d="M120.954 159.39H62.7841C53.6154 159.39 46.1641 151.939 46.1641 142.77V77.3978C46.1641 68.2291 53.6154 60.7778 62.7841 60.7778H120.954C130.123 60.7778 137.574 68.2291 137.574 77.3978V142.77C137.574 151.966 130.15 159.39 120.954 159.39Z" fill="#60BBE0"/>
<path d="M120.954 156.038H62.7841C53.6154 156.038 46.1641 148.587 46.1641 139.418V142.77C46.1641 151.939 53.6154 159.39 62.7841 159.39H120.954C130.123 159.39 137.574 151.939 137.574 142.77V139.418C137.574 148.587 130.15 156.038 120.954 156.038Z" fill="#77D8FF"/>
<path d="M120.954 60.7778H62.7841C53.6154 60.7778 46.1641 67.6197 46.1641 76.0405V79.6138C46.1641 71.193 53.6154 64.3511 62.7841 64.3511H120.954C130.123 64.3511 137.574 71.193 137.574 79.6138V76.0405C137.574 67.6197 130.15 60.7778 120.954 60.7778Z" fill="#77D8FF"/>
<path opacity="0.3" d="M101.563 101.358H86.6051C83.8628 101.358 81.6191 99.1146 81.6191 96.3723V65.7638C81.6191 63.0215 83.8628 60.7778 86.6051 60.7778H106.549V96.3723C106.549 99.1146 104.333 101.358 101.563 101.358Z" fill="#474747" stroke="#474747" stroke-width="1.662" stroke-miterlimit="10" stroke-linecap="round" stroke-linejoin="round"/>
<path d="M120.954 159.39H62.7841C53.6154 159.39 46.1641 151.939 46.1641 142.77V77.3978C46.1641 68.2291 53.6154 60.7778 62.7841 60.7778H120.954C130.123 60.7778 137.574 68.2291 137.574 77.3978V142.77C137.574 151.966 130.15 159.39 120.954 159.39Z" stroke="#1D2D5A" stroke-width="1.662" stroke-miterlimit="10" stroke-linecap="round" stroke-linejoin="round"/>
<g opacity="0.46">
<path opacity="0.46" d="M52.2578 142.354V77.8134C52.2578 71.9964 56.9668 67.2874 62.7838 67.2874H120.954C126.771 67.2874 131.48 71.9964 131.48 77.8134V142.327C131.48 148.144 126.771 152.853 120.954 152.853H62.7838C56.9668 152.88 52.2578 148.171 52.2578 142.354Z" stroke="#474747" stroke-width="1.108" stroke-linecap="round" stroke-linejoin="round" stroke-dasharray="3.87 3.87"/>
</g>
<path d="M99.3483 98.3114H84.3903C81.648 98.3114 79.4043 96.0677 79.4043 93.3254V59.5314C79.4043 56.7891 81.648 54.5454 84.3903 54.5454H99.3483C102.091 54.5454 104.334 56.7891 104.334 59.5314V93.3254C104.334 96.0677 102.118 98.3114 99.3483 98.3114Z" fill="#60BBE0"/>
<path d="M99.3483 96.0124H84.3903C81.648 96.0124 79.4043 93.7687 79.4043 91.0264V93.3255C79.4043 96.0678 81.648 98.3115 84.3903 98.3115H99.3483C102.091 98.3115 104.334 96.0678 104.334 93.3255V91.0264C104.334 93.7687 102.118 96.0124 99.3483 96.0124Z" fill="#2B99C5"/>
<path d="M99.3483 54.5454H84.3903C81.648 54.5454 79.4043 56.7891 79.4043 59.5314V61.415C79.4043 58.6727 81.648 56.429 84.3903 56.429H99.3483C102.091 56.429 104.334 58.6727 104.334 61.415V59.5314C104.334 56.7891 102.118 54.5454 99.3483 54.5454Z" fill="#77D8FF"/>
<path d="M99.3483 98.3114H84.3903C81.648 98.3114 79.4043 96.0677 79.4043 93.3254V59.5314C79.4043 56.7891 81.648 54.5454 84.3903 54.5454H99.3483C102.091 54.5454 104.334 56.7891 104.334 59.5314V93.3254C104.334 96.0677 102.118 98.3114 99.3483 98.3114Z" stroke="#1D2D5A" stroke-width="1.662" stroke-miterlimit="10" stroke-linecap="round" stroke-linejoin="round"/>
<path opacity="0.3" d="M92.6998 91.1648C96.249 91.1648 99.1262 88.2876 99.1262 84.7384C99.1262 81.1892 96.249 78.312 92.6998 78.312C89.1506 78.312 86.2734 81.1892 86.2734 84.7384C86.2734 88.2876 89.1506 91.1648 92.6998 91.1648Z" fill="#474747" stroke="#474747" stroke-width="1.662" stroke-miterlimit="10" stroke-linecap="round" stroke-linejoin="round"/>
<g opacity="0.46">
<path opacity="0.46" d="M84.3886 94.9875C83.4745 94.9875 82.7266 94.2396 82.7266 93.3255V59.5315C82.7266 58.6174 83.4745 57.8695 84.3886 57.8695H99.3466C100.261 57.8695 101.009 58.6174 101.009 59.5315V93.3255C101.009 94.2396 100.261 94.9875 99.3466 94.9875H84.3886Z" stroke="#474747" stroke-width="1.108" stroke-linecap="round" stroke-linejoin="round" stroke-dasharray="2.73 2.73"/>
</g>
<path d="M91.8678 89.5028C95.417 89.5028 98.2942 86.6256 98.2942 83.0764C98.2942 79.5272 95.417 76.65 91.8678 76.65C88.3186 76.65 85.4414 79.5272 85.4414 83.0764C85.4414 86.6256 88.3186 89.5028 91.8678 89.5028Z" fill="#23325E"/>
<path d="M91.8678 89.5028C95.417 89.5028 98.2942 86.6256 98.2942 83.0764C98.2942 79.5272 95.417 76.65 91.8678 76.65C88.3186 76.65 85.4414 79.5272 85.4414 83.0764C85.4414 86.6256 88.3186 89.5028 91.8678 89.5028Z" stroke="#1D2D5A" stroke-width="1.662" stroke-miterlimit="10" stroke-linecap="round" stroke-linejoin="round"/>
<g opacity="0.6">
<path opacity="0.1" d="M94.5829 79.7802C94.8045 80.8328 93.558 81.4979 91.7298 81.8857C89.8739 82.2458 88.2119 82.3012 87.9903 81.4148C87.7687 80.5561 89.0152 78.9215 90.8434 78.3952C92.6993 77.8689 94.3613 78.7553 94.5829 79.7802Z" fill="white"/>
</g>
<path d="M184.359 159.39H164.969C163.861 159.39 162.947 158.476 162.947 157.368V156.01C162.947 154.902 163.861 153.988 164.969 153.988H184.359C185.467 153.988 186.381 154.902 186.381 156.01V157.368C186.381 158.504 185.467 159.39 184.359 159.39Z" fill="#FDB740"/>
<path opacity="0.88" d="M184.359 154.57H164.969C163.861 154.57 162.947 155.484 162.947 156.592V157.368C162.947 156.26 163.861 155.346 164.969 155.346H184.359C185.467 155.346 186.381 156.26 186.381 157.368V156.592C186.381 155.484 185.467 154.57 184.359 154.57Z" fill="#FFF3C0"/>
<path d="M184.359 158.78H164.969C163.861 158.78 162.947 157.866 162.947 156.758V155.983C162.947 157.091 163.861 158.005 164.969 158.005H184.359C185.467 158.005 186.381 157.091 186.381 155.983V156.758C186.381 157.894 185.467 158.78 184.359 158.78Z" fill="#F29E25"/>
<path d="M184.359 159.39H164.969C163.861 159.39 162.947 158.476 162.947 157.368V156.011C162.947 154.902 163.861 153.988 164.969 153.988H184.359C185.467 153.988 186.381 154.902 186.381 156.011V157.368C186.381 158.504 185.467 159.39 184.359 159.39Z" stroke="#474747" stroke-width="1.662" stroke-miterlimit="10" stroke-linecap="round" stroke-linejoin="round"/>
<path d="M187.6 154.016H168.21C167.102 154.016 166.188 153.102 166.188 151.994V150.637C166.188 149.529 167.102 148.615 168.21 148.615H187.6C188.708 148.615 189.622 149.529 189.622 150.637V151.994C189.594 153.13 188.708 154.016 187.6 154.016Z" fill="#FDB740"/>
<path opacity="0.88" d="M187.6 149.196H168.21C167.102 149.196 166.188 150.11 166.188 151.218V151.994C166.188 150.886 167.102 149.972 168.21 149.972H187.6C188.708 149.972 189.622 150.886 189.622 151.994V151.218C189.594 150.11 188.708 149.196 187.6 149.196Z" fill="#FFF3C0"/>
<path d="M187.6 153.407H168.21C167.102 153.407 166.188 152.492 166.188 151.384V150.609C166.188 151.717 167.102 152.631 168.21 152.631H187.6C188.708 152.631 189.622 151.717 189.622 150.609V151.384C189.594 152.52 188.708 153.407 187.6 153.407Z" fill="#F29E25"/>
<path d="M187.6 154.016H168.21C167.102 154.016 166.188 153.102 166.188 151.994V150.637C166.188 149.529 167.102 148.615 168.21 148.615H187.6C188.708 148.615 189.622 149.529 189.622 150.637V151.994C189.594 153.13 188.708 154.016 187.6 154.016Z" stroke="#474747" stroke-width="1.662" stroke-miterlimit="10" stroke-linecap="round" stroke-linejoin="round"/>
<path d="M184.359 148.642H164.969C163.861 148.642 162.947 147.728 162.947 146.62V145.263C162.947 144.155 163.861 143.241 164.969 143.241H184.359C185.467 143.241 186.381 144.155 186.381 145.263V146.62C186.381 147.756 185.467 148.642 184.359 148.642Z" fill="#FDB740"/>
<path opacity="0.88" d="M184.359 143.851H164.969C163.861 143.851 162.947 144.765 162.947 145.873V146.648C162.947 145.54 163.861 144.626 164.969 144.626H184.359C185.467 144.626 186.381 145.54 186.381 146.648V145.873C186.381 144.737 185.467 143.851 184.359 143.851Z" fill="#FFF3C0"/>
<path d="M184.359 148.061H164.969C163.861 148.061 162.947 147.147 162.947 146.039V145.263C162.947 146.371 163.861 147.285 164.969 147.285H184.359C185.467 147.285 186.381 146.371 186.381 145.263V146.039C186.381 147.147 185.467 148.061 184.359 148.061Z" fill="#F29E25"/>
<path d="M184.359 148.642H164.969C163.861 148.642 162.947 147.728 162.947 146.62V145.263C162.947 144.155 163.861 143.241 164.969 143.241H184.359C185.467 143.241 186.381 144.155 186.381 145.263V146.62C186.381 147.756 185.467 148.642 184.359 148.642Z" stroke="#474747" stroke-width="1.662" stroke-miterlimit="10" stroke-linecap="round" stroke-linejoin="round"/>
<path d="M162.421 144.598L149.18 158.753C148.432 159.556 147.158 159.611 146.327 158.836L145.357 157.922C144.554 157.174 144.499 155.9 145.274 155.069L158.515 140.914C159.263 140.111 160.537 140.055 161.368 140.831L162.338 141.745C163.113 142.521 163.169 143.767 162.421 144.598Z" fill="#FDB740"/>
<path opacity="0.88" d="M158.903 141.302L145.662 155.456C144.914 156.26 144.942 157.534 145.745 158.31L146.327 158.836C145.523 158.088 145.468 156.814 146.244 155.983L159.484 141.828C160.232 141.025 161.506 140.969 162.337 141.745L161.756 141.219C160.925 140.443 159.65 140.498 158.903 141.302Z" fill="#FFF3C0"/>
<path d="M161.976 144.183L148.736 158.337C147.988 159.141 146.713 159.196 145.882 158.42L145.301 157.894C146.104 158.642 147.378 158.614 148.154 157.811L161.394 143.656C162.142 142.853 162.115 141.579 161.311 140.803L161.893 141.329C162.669 142.105 162.724 143.379 161.976 144.183Z" fill="#F29E25"/>
<path d="M162.421 144.598L149.18 158.753C148.432 159.556 147.158 159.611 146.327 158.836L145.357 157.922C144.554 157.174 144.499 155.9 145.274 155.069L158.515 140.914C159.263 140.111 160.537 140.055 161.368 140.831L162.338 141.745C163.113 142.521 163.169 143.767 162.421 144.598Z" stroke="#474747" stroke-width="1.662" stroke-miterlimit="10" stroke-linecap="round" stroke-linejoin="round"/>
</g>
<defs>
<clipPath id="clip0_199_5793">
<rect width="205" height="193" fill="white"/>
</clipPath>
</defs>
</svg>
