<svg width="277" height="277" viewBox="0 0 277 277" fill="none" xmlns="http://www.w3.org/2000/svg">
<g clip-path="url(#clip0_199_5793)">
<path d="M277 0H0V277H277V0Z" fill="white"/>
<g opacity="0.15">
<path opacity="0.15" d="M43.6289 107.448H65.6227V118.168H43.6289" stroke="#474747" stroke-width="1.662" stroke-miterlimit="10" stroke-linecap="round" stroke-linejoin="round"/>
<path opacity="0.15" d="M87.5872 118.168H65.6211" stroke="#474747" stroke-width="1.662" stroke-miterlimit="10" stroke-linecap="round" stroke-linejoin="round"/>
<path opacity="0.15" d="M65.6211 107.448H74.0419" stroke="#474747" stroke-width="1.662" stroke-miterlimit="10" stroke-linecap="round" stroke-linejoin="round"/>
<path opacity="0.15" d="M76.5911 118.168H54.625V128.888H76.5911V118.168Z" stroke="#474747" stroke-width="1.662" stroke-miterlimit="10" stroke-linecap="round" stroke-linejoin="round"/>
<path opacity="0.15" d="M47.0625 128.944H65.6215V139.664H58.5026" stroke="#474747" stroke-width="1.662" stroke-miterlimit="10" stroke-linecap="round" stroke-linejoin="round"/>
<path opacity="0.15" d="M87.5872 128.944H65.6211V139.664H87.5872V128.944Z" stroke="#474747" stroke-width="1.662" stroke-miterlimit="10" stroke-linecap="round" stroke-linejoin="round"/>
<path opacity="0.15" d="M160.801 146.256H182.795V156.948H160.801" stroke="#474747" stroke-width="1.662" stroke-miterlimit="10" stroke-linecap="round" stroke-linejoin="round"/>
<path opacity="0.15" d="M204.759 156.948H182.793" stroke="#474747" stroke-width="1.662" stroke-miterlimit="10" stroke-linecap="round" stroke-linejoin="round"/>
<path opacity="0.15" d="M182.793 146.256H191.214" stroke="#474747" stroke-width="1.662" stroke-miterlimit="10" stroke-linecap="round" stroke-linejoin="round"/>
<path opacity="0.15" d="M193.763 156.948H171.797V167.668H193.763V156.948Z" stroke="#474747" stroke-width="1.662" stroke-miterlimit="10" stroke-linecap="round" stroke-linejoin="round"/>
<path opacity="0.15" d="M164.234 167.724H182.793V178.444H175.674" stroke="#474747" stroke-width="1.662" stroke-miterlimit="10" stroke-linecap="round" stroke-linejoin="round"/>
<path opacity="0.15" d="M196.948 178.444H182.793V167.724H201.103" stroke="#474747" stroke-width="1.662" stroke-miterlimit="10" stroke-linecap="round" stroke-linejoin="round"/>
<path opacity="0.15" d="M123.239 67.311H89.1406V94.9556H123.239V67.311Z" stroke="#474747" stroke-width="1.662" stroke-miterlimit="10" stroke-linecap="round" stroke-linejoin="round"/>
<path opacity="0.15" d="M93.8477 88.5569L100.08 79.499L106.562 87.5043" stroke="#474747" stroke-width="1.662" stroke-miterlimit="10" stroke-linecap="round" stroke-linejoin="round"/>
<path opacity="0.15" d="M104.18 84.5683L112.905 76.1198L119.082 88.5571" stroke="#474747" stroke-width="1.662" stroke-miterlimit="10" stroke-linecap="round" stroke-linejoin="round"/>
<path opacity="0.15" d="M101.91 81.7427C102.353 80.4408 103.572 79.499 105.013 79.499C106.204 79.499 107.256 80.1361 107.838 81.1056" stroke="#474747" stroke-width="1.662" stroke-miterlimit="10" stroke-linecap="round" stroke-linejoin="round"/>
<path opacity="0.15" d="M211.906 113.625H163.403C161.603 113.625 160.162 112.185 160.162 110.385C160.162 108.584 161.603 107.144 163.403 107.144H211.906C213.706 107.144 215.147 108.584 215.147 110.385C215.147 112.185 213.706 113.625 211.906 113.625Z" stroke="#474747" stroke-width="1.662" stroke-miterlimit="10" stroke-linecap="round" stroke-linejoin="round"/>
<path opacity="0.15" d="M195.23 107.144H181.02L178.084 89.0001H198.194L195.23 107.144Z" stroke="#474747" stroke-width="1.662" stroke-miterlimit="10" stroke-linecap="round" stroke-linejoin="round"/>
<path opacity="0.15" d="M200.966 83.7371H175.398V89.0001H200.966V83.7371Z" stroke="#474747" stroke-width="1.662" stroke-miterlimit="10" stroke-linecap="round" stroke-linejoin="round"/>
<g opacity="0.15">
<path opacity="0.15" d="M191.437 83.7372C189.692 83.7372 187.947 83.7372 186.202 83.7372C184.761 78.7235 183.515 73.4605 183.681 68.3083C183.875 65.843 186.534 63.7655 188.833 63.7655C191.132 63.7655 193.791 65.843 193.985 68.3083C194.096 73.4605 192.85 78.7235 191.437 83.7372Z" stroke="#474747" stroke-width="1.662" stroke-miterlimit="10" stroke-linecap="round" stroke-linejoin="round"/>
</g>
<path opacity="0.15" d="M194.096 67.6991L197.724 61.6882C198.417 60.5248 199.996 60.2755 201.021 61.1619C202.046 62.0483 202.018 63.6272 200.965 64.4859L194.151 70.0813" stroke="#474747" stroke-width="1.662" stroke-miterlimit="10" stroke-linecap="round" stroke-linejoin="round"/>
<path opacity="0.15" d="M197.78 61.6326L196.062 56.2588C195.785 55.4278 196.339 54.5691 197.198 54.4583C198.057 54.3475 198.804 55.0123 198.804 55.871L198.666 60.2199" stroke="#474747" stroke-width="1.662" stroke-miterlimit="10" stroke-linecap="round" stroke-linejoin="round"/>
</g>
<path d="M149.593 179.302L186.141 104.329L149.962 86.6926L113.414 161.665L149.593 179.302Z" fill="#5EDC81"/>
<path d="M149.593 179.302L186.141 104.329L149.962 86.6926L113.414 161.665L149.593 179.302Z" stroke="#474747" stroke-width="1.662" stroke-miterlimit="10" stroke-linecap="round" stroke-linejoin="round"/>
<path d="M171.824 102.462L160.246 96.8115C158.057 101.327 152.628 103.183 148.113 100.994L119.582 159.497L147.476 173.097L176.007 114.595C171.492 112.407 169.608 106.977 171.824 102.462Z" fill="#F6F9EA"/>
<path d="M171.824 102.462L160.246 96.8115C158.057 101.327 152.628 103.183 148.113 100.994L119.582 159.497L147.476 173.097L176.007 114.595C171.492 112.407 169.608 106.977 171.824 102.462Z" stroke="#474747" stroke-width="1.662" stroke-miterlimit="10" stroke-linecap="round" stroke-linejoin="round"/>
<path d="M179.977 106.441L152.09 92.8459L119.584 159.527L147.472 173.121L179.977 106.441Z" stroke="#474747" stroke-width="1.662" stroke-miterlimit="10" stroke-linecap="round" stroke-linejoin="round"/>
<path d="M152.544 136.644C157.791 136.644 162.045 132.391 162.045 127.143C162.045 121.896 157.791 117.642 152.544 117.642C147.297 117.642 143.043 121.896 143.043 127.143C143.043 132.391 147.297 136.644 152.544 136.644Z" fill="#77BA85"/>
<path d="M152.544 136.644C157.791 136.644 162.045 132.391 162.045 127.143C162.045 121.896 157.791 117.642 152.544 117.642C147.297 117.642 143.043 121.896 143.043 127.143C143.043 132.391 147.297 136.644 152.544 136.644Z" stroke="#474747" stroke-width="1.662" stroke-miterlimit="10" stroke-linecap="round" stroke-linejoin="round"/>
<path opacity="0.15" d="M46.8125 207.39H230.186" stroke="#474747" stroke-width="1.662" stroke-miterlimit="10" stroke-linecap="round" stroke-linejoin="round"/>
<path d="M154.954 207.39H96.7841C87.6154 207.39 80.1641 199.939 80.1641 190.77V125.398C80.1641 116.229 87.6154 108.778 96.7841 108.778H154.954C164.123 108.778 171.574 116.229 171.574 125.398V190.77C171.574 199.966 164.15 207.39 154.954 207.39Z" fill="#F58870"/>
<path d="M154.954 207.39H96.7841C87.6154 207.39 80.1641 199.939 80.1641 190.77V125.398C80.1641 116.229 87.6154 108.778 96.7841 108.778H154.954C164.123 108.778 171.574 116.229 171.574 125.398V190.77C171.574 199.966 164.15 207.39 154.954 207.39Z" fill="#60BBE0"/>
<path d="M154.954 204.038H96.7841C87.6154 204.038 80.1641 196.587 80.1641 187.418V190.77C80.1641 199.939 87.6154 207.39 96.7841 207.39H154.954C164.123 207.39 171.574 199.939 171.574 190.77V187.418C171.574 196.587 164.15 204.038 154.954 204.038Z" fill="#77D8FF"/>
<path d="M154.954 108.778H96.7841C87.6154 108.778 80.1641 115.62 80.1641 124.041V127.614C80.1641 119.193 87.6154 112.351 96.7841 112.351H154.954C164.123 112.351 171.574 119.193 171.574 127.614V124.041C171.574 115.62 164.15 108.778 154.954 108.778Z" fill="#77D8FF"/>
<path opacity="0.3" d="M135.563 149.358H120.605C117.863 149.358 115.619 147.115 115.619 144.372V113.764C115.619 111.022 117.863 108.778 120.605 108.778H140.549V144.372C140.549 147.115 138.333 149.358 135.563 149.358Z" fill="#474747" stroke="#474747" stroke-width="1.662" stroke-miterlimit="10" stroke-linecap="round" stroke-linejoin="round"/>
<path d="M154.954 207.39H96.7841C87.6154 207.39 80.1641 199.939 80.1641 190.77V125.398C80.1641 116.229 87.6154 108.778 96.7841 108.778H154.954C164.123 108.778 171.574 116.229 171.574 125.398V190.77C171.574 199.966 164.15 207.39 154.954 207.39Z" stroke="#1D2D5A" stroke-width="1.662" stroke-miterlimit="10" stroke-linecap="round" stroke-linejoin="round"/>
<g opacity="0.46">
<path opacity="0.46" d="M86.2578 190.354V125.813C86.2578 119.996 90.9668 115.287 96.7838 115.287H154.954C160.771 115.287 165.48 119.996 165.48 125.813V190.327C165.48 196.144 160.771 200.853 154.954 200.853H96.7838C90.9668 200.88 86.2578 196.171 86.2578 190.354Z" stroke="#474747" stroke-width="1.108" stroke-linecap="round" stroke-linejoin="round" stroke-dasharray="3.87 3.87"/>
</g>
<path d="M133.348 146.311H118.39C115.648 146.311 113.404 144.068 113.404 141.325V107.531C113.404 104.789 115.648 102.545 118.39 102.545H133.348C136.091 102.545 138.334 104.789 138.334 107.531V141.325C138.334 144.068 136.118 146.311 133.348 146.311Z" fill="#60BBE0"/>
<path d="M133.348 144.012H118.39C115.648 144.012 113.404 141.769 113.404 139.026V141.325C113.404 144.068 115.648 146.311 118.39 146.311H133.348C136.091 146.311 138.334 144.068 138.334 141.325V139.026C138.334 141.769 136.118 144.012 133.348 144.012Z" fill="#2B99C5"/>
<path d="M133.348 102.545H118.39C115.648 102.545 113.404 104.789 113.404 107.531V109.415C113.404 106.673 115.648 104.429 118.39 104.429H133.348C136.091 104.429 138.334 106.673 138.334 109.415V107.531C138.334 104.789 136.118 102.545 133.348 102.545Z" fill="#77D8FF"/>
<path d="M133.348 146.311H118.39C115.648 146.311 113.404 144.068 113.404 141.325V107.531C113.404 104.789 115.648 102.545 118.39 102.545H133.348C136.091 102.545 138.334 104.789 138.334 107.531V141.325C138.334 144.068 136.118 146.311 133.348 146.311Z" stroke="#1D2D5A" stroke-width="1.662" stroke-miterlimit="10" stroke-linecap="round" stroke-linejoin="round"/>
<path opacity="0.3" d="M126.7 139.165C130.249 139.165 133.126 136.288 133.126 132.738C133.126 129.189 130.249 126.312 126.7 126.312C123.151 126.312 120.273 129.189 120.273 132.738C120.273 136.288 123.151 139.165 126.7 139.165Z" fill="#474747" stroke="#474747" stroke-width="1.662" stroke-miterlimit="10" stroke-linecap="round" stroke-linejoin="round"/>
<g opacity="0.46">
<path opacity="0.46" d="M118.389 142.988C117.474 142.988 116.727 142.24 116.727 141.326V107.532C116.727 106.617 117.474 105.87 118.389 105.87H133.347C134.261 105.87 135.009 106.617 135.009 107.532V141.326C135.009 142.24 134.261 142.988 133.347 142.988H118.389Z" stroke="#474747" stroke-width="1.108" stroke-linecap="round" stroke-linejoin="round" stroke-dasharray="2.73 2.73"/>
</g>
<path d="M125.868 137.503C129.417 137.503 132.294 134.626 132.294 131.076C132.294 127.527 129.417 124.65 125.868 124.65C122.319 124.65 119.441 127.527 119.441 131.076C119.441 134.626 122.319 137.503 125.868 137.503Z" fill="#23325E"/>
<path d="M125.868 137.503C129.417 137.503 132.294 134.626 132.294 131.076C132.294 127.527 129.417 124.65 125.868 124.65C122.319 124.65 119.441 127.527 119.441 131.076C119.441 134.626 122.319 137.503 125.868 137.503Z" stroke="#1D2D5A" stroke-width="1.662" stroke-miterlimit="10" stroke-linecap="round" stroke-linejoin="round"/>
<g opacity="0.6">
<path opacity="0.1" d="M128.583 127.78C128.805 128.833 127.558 129.498 125.73 129.886C123.874 130.246 122.212 130.301 121.99 129.415C121.769 128.556 123.015 126.921 124.843 126.395C126.699 125.869 128.361 126.755 128.583 127.78Z" fill="white"/>
</g>
<path d="M218.359 207.39H198.969C197.861 207.39 196.947 206.476 196.947 205.368V204.01C196.947 202.902 197.861 201.988 198.969 201.988H218.359C219.467 201.988 220.381 202.902 220.381 204.01V205.368C220.381 206.504 219.467 207.39 218.359 207.39Z" fill="#FDB740"/>
<path opacity="0.88" d="M218.359 202.57H198.969C197.861 202.57 196.947 203.484 196.947 204.592V205.368C196.947 204.26 197.861 203.346 198.969 203.346H218.359C219.467 203.346 220.381 204.26 220.381 205.368V204.592C220.381 203.484 219.467 202.57 218.359 202.57Z" fill="#FFF3C0"/>
<path d="M218.359 206.78H198.969C197.861 206.78 196.947 205.866 196.947 204.758V203.983C196.947 205.091 197.861 206.005 198.969 206.005H218.359C219.467 206.005 220.381 205.091 220.381 203.983V204.758C220.381 205.894 219.467 206.78 218.359 206.78Z" fill="#F29E25"/>
<path d="M218.359 207.39H198.969C197.861 207.39 196.947 206.476 196.947 205.368V204.011C196.947 202.902 197.861 201.988 198.969 201.988H218.359C219.467 201.988 220.381 202.902 220.381 204.011V205.368C220.381 206.504 219.467 207.39 218.359 207.39Z" stroke="#474747" stroke-width="1.662" stroke-miterlimit="10" stroke-linecap="round" stroke-linejoin="round"/>
<path d="M221.6 202.016H202.21C201.102 202.016 200.188 201.102 200.188 199.994V198.637C200.188 197.529 201.102 196.615 202.21 196.615H221.6C222.708 196.615 223.622 197.529 223.622 198.637V199.994C223.594 201.13 222.708 202.016 221.6 202.016Z" fill="#FDB740"/>
<path opacity="0.88" d="M221.6 197.196H202.21C201.102 197.196 200.188 198.11 200.188 199.218V199.994C200.188 198.886 201.102 197.972 202.21 197.972H221.6C222.708 197.972 223.622 198.886 223.622 199.994V199.218C223.594 198.11 222.708 197.196 221.6 197.196Z" fill="#FFF3C0"/>
<path d="M221.6 201.407H202.21C201.102 201.407 200.188 200.492 200.188 199.384V198.609C200.188 199.717 201.102 200.631 202.21 200.631H221.6C222.708 200.631 223.622 199.717 223.622 198.609V199.384C223.594 200.52 222.708 201.407 221.6 201.407Z" fill="#F29E25"/>
<path d="M221.6 202.016H202.21C201.102 202.016 200.188 201.102 200.188 199.994V198.637C200.188 197.529 201.102 196.615 202.21 196.615H221.6C222.708 196.615 223.622 197.529 223.622 198.637V199.994C223.594 201.13 222.708 202.016 221.6 202.016Z" stroke="#474747" stroke-width="1.662" stroke-miterlimit="10" stroke-linecap="round" stroke-linejoin="round"/>
<path d="M218.359 196.642H198.969C197.861 196.642 196.947 195.728 196.947 194.62V193.263C196.947 192.155 197.861 191.241 198.969 191.241H218.359C219.467 191.241 220.381 192.155 220.381 193.263V194.62C220.381 195.756 219.467 196.642 218.359 196.642Z" fill="#FDB740"/>
<path opacity="0.88" d="M218.359 191.851H198.969C197.861 191.851 196.947 192.765 196.947 193.873V194.648C196.947 193.54 197.861 192.626 198.969 192.626H218.359C219.467 192.626 220.381 193.54 220.381 194.648V193.873C220.381 192.737 219.467 191.851 218.359 191.851Z" fill="#FFF3C0"/>
<path d="M218.359 196.061H198.969C197.861 196.061 196.947 195.147 196.947 194.039V193.263C196.947 194.371 197.861 195.285 198.969 195.285H218.359C219.467 195.285 220.381 194.371 220.381 193.263V194.039C220.381 195.147 219.467 196.061 218.359 196.061Z" fill="#F29E25"/>
<path d="M218.359 196.642H198.969C197.861 196.642 196.947 195.728 196.947 194.62V193.263C196.947 192.155 197.861 191.241 198.969 191.241H218.359C219.467 191.241 220.381 192.155 220.381 193.263V194.62C220.381 195.756 219.467 196.642 218.359 196.642Z" stroke="#474747" stroke-width="1.662" stroke-miterlimit="10" stroke-linecap="round" stroke-linejoin="round"/>
<path d="M196.421 192.598L183.18 206.753C182.432 207.556 181.158 207.611 180.327 206.836L179.357 205.922C178.554 205.174 178.499 203.9 179.274 203.069L192.515 188.914C193.263 188.111 194.537 188.055 195.368 188.831L196.338 189.745C197.113 190.521 197.169 191.767 196.421 192.598Z" fill="#FDB740"/>
<path opacity="0.88" d="M192.903 189.302L179.662 203.456C178.914 204.26 178.942 205.534 179.745 206.31L180.327 206.836C179.523 206.088 179.468 204.814 180.244 203.983L193.484 189.828C194.232 189.025 195.506 188.969 196.337 189.745L195.756 189.219C194.925 188.443 193.65 188.498 192.903 189.302Z" fill="#FFF3C0"/>
<path d="M195.976 192.183L182.736 206.337C181.988 207.141 180.713 207.196 179.882 206.42L179.301 205.894C180.104 206.642 181.378 206.614 182.154 205.811L195.394 191.656C196.142 190.853 196.115 189.579 195.311 188.803L195.893 189.329C196.669 190.105 196.724 191.379 195.976 192.183Z" fill="#F29E25"/>
<path d="M196.421 192.598L183.18 206.753C182.432 207.556 181.158 207.611 180.327 206.836L179.357 205.922C178.554 205.174 178.499 203.9 179.274 203.069L192.515 188.914C193.263 188.111 194.537 188.055 195.368 188.831L196.338 189.745C197.113 190.521 197.169 191.767 196.421 192.598Z" stroke="#474747" stroke-width="1.662" stroke-miterlimit="10" stroke-linecap="round" stroke-linejoin="round"/>
</g>
<defs>
<clipPath id="clip0_199_5793">
<rect width="277" height="277" fill="white"/>
</clipPath>
</defs>
</svg>
